<?xml version="1.0" encoding="UTF-8"?>
<svg id="Layer_1" xmlns="http://www.w3.org/2000/svg" version="1.1" viewBox="0 0 652 652">
  
  <defs>
    
  </defs>
  <path class="st0" d="M651.2,325.8c0,179.2-146.2,325.5-325.8,325.5S0,505,0,325.8,146.2,0,325.5,0s325.8,146.2,325.8,325.8ZM433.2,197.2l-144.5,229.8-72-90c-6.8-8.8-13-11.5-20.8-11.5-12.5,0-22.2,10.2-22.2,22.8s2.5,12.5,6.8,18l85.2,103c7.2,9.2,14.5,13.2,24,13.2s17.2-4.5,23-13.2l156.8-245.8c3.2-5.2,6.5-11.8,6.5-17.8,0-12.8-11-21.2-23-21.2s-14.8,4.5-19.8,12.8Z"></path>
</svg>