<svg width="320" height="320" viewBox="0 0 320 320" fill="none" xmlns="http://www.w3.org/2000/svg">
<path d="M12.8696 150.605C15.9977 147.579 20.7169 147.544 23.7993 150.625L35.7622 162.542L47.7251 150.625L47.7368 150.614L47.7476 150.604C50.6972 147.754 55.2015 147.557 58.354 150.327L58.6548 150.605L58.6792 150.628L58.7026 150.652C61.7265 153.783 61.7605 158.504 58.6792 161.588L58.6763 161.592L46.7417 173.48L58.6763 185.367H58.6753C61.7823 188.392 61.7058 193.198 58.7026 196.307L58.6792 196.331L58.6548 196.355C55.5267 199.381 50.8076 199.416 47.7251 196.334L35.7622 184.416L23.7993 196.334L23.7778 196.356C20.7331 199.297 16.0307 199.412 12.8696 196.355L12.8218 196.307C9.798 193.176 9.76466 188.454 12.8462 185.37L12.8491 185.367L24.7827 173.48L12.8491 161.592V161.591C9.74292 158.567 9.81919 153.761 12.8218 150.652L12.8696 150.605Z" fill="#00C8B3" stroke="#00C8B3" stroke-width="4"></path>
<path d="M92.0098 217.079L90.8252 219.863C88.8304 224.55 87.3662 229.122 86.4385 233.473L86.1006 235.055H17.0225C12.0503 235.055 8 231 8 226.028C8.00016 221.12 12.0651 217.079 17.0225 217.079H92.0098ZM156.954 217.079L155.833 219.834C153.732 224.993 151.379 229.775 148.786 234.086L148.203 235.055H95.5947L96.0781 232.659C96.9967 228.108 98.7548 223.21 101.253 218.189L101.805 217.079H156.954ZM302.978 217.079C307.935 217.079 312 221.12 312 226.028C312 231 307.95 235.055 302.978 235.055H158.862L160.445 232.109C162.7 227.912 164.708 223.301 166.512 218.39L166.993 217.079H302.978Z" fill="#00C8B3" stroke="#00C8B3" stroke-width="4"></path>
<path d="M113.524 47.0772C134.434 47.0772 151.438 58.933 163.122 77.8643C173.554 94.7665 179.826 117.404 181.036 142.72C187.373 141.577 193.916 140.961 200.637 140.961C207.312 140.961 212.955 142.525 216.979 145.596C221.066 148.713 223.31 153.26 223.31 158.754C223.309 163.214 221.966 167.692 220.724 171.452C220.085 173.385 219.488 175.08 219.035 176.627C218.578 178.186 218.339 179.367 218.339 180.231C218.339 180.246 218.34 180.261 218.34 180.275C218.792 180.233 219.662 179.937 221.05 179.075C222.477 178.189 224.177 176.887 226.12 175.26C230.031 171.986 234.601 167.676 239.619 163.22C244.579 158.816 249.902 154.34 255.103 150.96C260.245 147.618 265.563 145.147 270.468 145.147C273.219 145.147 275.549 145.741 277.494 146.868C279.437 147.994 280.881 149.585 281.964 151.403C284.084 154.964 284.909 159.566 285.451 163.789C286.019 168.213 286.279 172.142 287.108 175.126C287.514 176.585 287.995 177.557 288.529 178.145C288.99 178.652 289.546 178.941 290.432 178.941C291.798 178.941 293.123 178.405 294.791 177.656C296.284 176.986 298.275 176.02 300.373 176.02C305.158 176.02 308.055 179.899 308.055 184.1C308.055 187.62 306.066 190.312 303.535 192.001L303.509 192.019L303.482 192.035C298.94 194.866 293.591 196.049 289.248 196.049C282.638 196.049 278.108 193.849 275.067 190.336C272.111 186.92 270.758 182.48 269.973 178.355C269.577 176.275 269.314 174.207 269.081 172.326C268.844 170.415 268.642 168.738 268.365 167.315C268.082 165.858 267.763 164.914 267.415 164.368C267.144 163.943 266.978 163.912 266.76 163.912C266.261 163.912 265.326 164.204 263.841 165.143C262.42 166.041 260.753 167.362 258.853 169.021C255.012 172.371 250.612 176.739 245.645 181.308C240.752 185.807 235.426 190.386 230.021 193.844C224.648 197.282 218.975 199.76 213.419 199.76C209.667 199.76 206.162 198.609 203.569 196.275C200.949 193.917 199.426 190.495 199.426 186.311C199.426 181.538 200.811 177.088 202.08 173.005C203.38 168.821 204.555 165.029 204.555 161.122C204.555 160.189 204.224 159.614 203.628 159.194C202.932 158.704 201.682 158.306 199.689 158.306C193.288 158.306 187.084 158.957 181.109 160.155C180.067 190.502 173.346 217.573 162.141 237.624C149.917 259.498 132.176 273.272 110.526 273.273C101.025 273.273 93.6291 270.304 88.6182 265.019C83.6248 259.751 81.2247 252.42 81.2246 244.11C81.2246 224.746 93.7746 199.3 114.501 178.619C86.426 159.308 66.2324 130.93 66.2324 98.6641C66.2326 69.8619 86.7659 47.0772 113.524 47.0772ZM163.405 165.494C156.127 168.447 149.315 172.18 143.048 176.451C144.026 176.944 144.992 177.419 145.944 177.871L145.975 177.886L146.003 177.9C149.234 179.566 150.795 182.283 150.795 185.284C150.795 189.439 147.245 193.049 142.641 193.049C141.316 193.049 139.97 192.852 138.457 192.061C135.315 190.651 132.22 189.135 129.183 187.522C128.498 188.157 127.823 188.797 127.158 189.442C118.202 198.147 111.109 207.742 106.265 216.933C101.405 226.152 98.875 234.836 98.875 241.741C98.875 246.123 99.9983 249.645 102.091 252.044C104.145 254.399 107.357 255.928 112.104 255.928C126.46 255.928 139.372 244.755 148.809 225.712C156.685 209.819 161.921 188.816 163.405 165.494ZM113.524 64.422C96.8721 64.422 83.6466 79.0691 83.6465 98.6641C83.6465 118.188 92.593 134.841 104.926 148.239C111.734 155.635 119.544 162.001 127.369 167.265C138.065 158.94 150.317 151.939 163.779 147.258C163.19 124.793 158.238 104.55 149.921 89.7032C141.049 73.8645 128.529 64.422 113.524 64.422Z" fill="#00C8B3" stroke="#00C8B3" stroke-width="4"></path>
</svg>