<svg width="320" height="320" viewBox="0 0 320 320" fill="none" xmlns="http://www.w3.org/2000/svg">
<path d="M129.871 93.3362V116.147H98.0342C86.7085 116.147 78.1679 119.332 72.457 125.043C66.7462 130.754 63.5606 139.295 63.5605 150.62V252.827C63.5605 264.153 66.7463 272.694 72.457 278.405C78.1679 284.115 86.7085 287.302 98.0342 287.302H221.862C233.242 287.302 241.808 284.114 247.531 278.403C253.253 272.692 256.439 264.153 256.439 252.827V150.62C256.439 139.295 253.253 130.756 247.531 125.045C241.808 119.334 233.242 116.147 221.862 116.147H190.129V93.3362H221.862C240.009 93.3363 254.438 98.369 264.327 108.244C274.217 118.12 279.25 132.524 279.25 150.62V252.724C279.25 270.82 274.217 285.249 264.329 295.151C254.441 305.052 240.012 310.112 221.862 310.112H98.1377C79.9881 310.112 65.559 305.052 55.6709 295.151C45.7833 285.249 40.75 270.82 40.75 252.724V150.62C40.7501 132.524 45.7834 118.12 55.6729 108.244C65.562 98.369 79.9911 93.3363 98.1377 93.3362H129.871Z" fill="#00C8B3" stroke="#00C8B3" stroke-width="4.5"></path>
<path d="M171.354 195.725C171.353 201.809 166.02 206.768 160 206.768C153.98 206.767 148.647 201.809 148.646 195.725V56.8506L148.648 56.8057L149.211 42.9346L145.078 47.2754L145.075 47.2793L122.523 70.8652L122.522 70.8643C120.396 73.2169 117.306 74.3534 114.587 74.3535C108.605 74.3535 104.164 69.951 104.164 64.0342C104.164 60.938 105.426 58.5304 107.513 56.4434L107.524 56.4326L107.535 56.4209L151.812 13.3867C154.473 10.7344 157.097 9.75006 160 9.75C162.903 9.75 165.527 10.7345 168.188 13.3867H168.189L212.465 56.4209L212.501 56.4561L212.535 56.4922C214.428 58.5034 215.837 60.8899 215.837 64.0342C215.837 70.0244 211.114 74.3535 205.207 74.3535C202.457 74.3535 199.477 73.1968 197.37 70.8613L174.922 47.2754V47.2744L170.787 42.9336L171.352 56.8057L171.354 56.8506V195.725Z" fill="#00C8B3" stroke="#00C8B3" stroke-width="4.5"></path>
</svg>