<svg width="320" height="320" viewBox="0 0 320 320" fill="none" xmlns="http://www.w3.org/2000/svg">
<path d="M190.179 20.54C194.362 15.1187 200.296 13.7552 204.768 16.0889C209.302 18.4555 211.388 24.1109 208.905 30.7139L208.901 30.7256L170.845 130.123H241.708C247.465 130.123 251.548 134.165 251.548 139.46C251.548 142.7 250.155 145.438 248.009 148.126L248.01 148.127L130.82 298.583C126.629 303.964 120.693 305.288 116.231 302.959C111.704 300.596 109.606 294.968 112.096 288.403L112.098 288.397L150.155 188.999H79.3916C76.5256 188.999 74.0234 188.036 72.2256 186.304C70.4269 184.57 69.4521 182.179 69.4521 179.562C69.4523 176.297 70.867 173.649 73.0059 170.976L190.179 20.54ZM103.226 168.416H181.552L180.321 171.22L150.678 238.794L217.673 150.707H139.348L140.577 147.903L170.22 80.3281L103.226 168.416Z" fill="#00C7B2" stroke="#00C7B2" stroke-width="4"></path>
</svg>