<svg width="320" height="320" viewBox="0 0 320 320" fill="none" xmlns="http://www.w3.org/2000/svg">
<path d="M159.944 12C241.643 12.0002 308 78.3572 308 160.056C308 241.756 241.641 308 159.944 308C78.2455 308 12 241.754 12 160.056C12.0002 78.359 78.2437 12 159.944 12ZM159.944 36.9609C91.8882 36.9609 36.8498 91.9996 36.8496 160.056C36.8496 204.416 60.2312 243.243 95.4414 264.788L96.6523 265.528L96.3525 266.915L94.8682 273.803L94.8652 273.816L94.8613 273.831C94.129 277.005 96.3239 280.237 99.5605 280.942C103.075 281.545 106.221 279.43 106.873 276.332L106.875 276.32L107.378 273.999L107.9 271.588L110.151 272.598C125.333 279.407 142.192 283.15 159.944 283.15C177.776 283.15 194.705 279.374 209.936 272.502L212.189 271.484L212.713 273.901L213.236 276.32L213.239 276.33L213.241 276.341C213.795 279.031 216.21 280.985 219.228 281.024L219.521 281.021C220.747 280.984 222.448 280.182 223.763 278.716C225.041 277.29 225.695 275.532 225.354 273.791L223.824 266.743L223.523 265.358L224.729 264.616C259.781 243.035 283.039 204.298 283.039 160.056C283.039 91.9997 228 36.9611 159.944 36.9609Z" fill="#00C7B2" stroke="#00C7B2" stroke-width="4"></path>
<path d="M149.754 93.6179C153.115 83.6679 166.515 83.5122 170.19 93.1511L170.357 93.6179L170.362 93.6306L194.108 165.569C201.312 165.725 207.257 171.274 208.753 178.464L229.266 272.957L229.27 272.973L229.272 272.989C229.932 276.287 228.624 279.286 226.74 281.386C224.89 283.45 222.22 284.944 219.636 285.02H219.633C214.723 285.157 210.332 282.001 209.327 277.167L189.535 185.82H130.577L110.786 277.155C109.646 282.569 104.287 285.831 98.8447 284.879L98.8115 284.873L98.7783 284.866C93.5188 283.759 89.6818 278.487 90.9639 272.931L111.358 178.354L111.361 178.343L111.363 178.331C112.968 171.294 118.782 165.726 126.003 165.569L149.75 93.6306L149.754 93.6179Z" fill="#00C7B2" stroke="#00C7B2" stroke-width="4"></path>
</svg>