<svg width="320" height="320" viewBox="0 0 320 320" fill="none" xmlns="http://www.w3.org/2000/svg">
<path d="M160.321 22.25C179.5 22.25 197.6 29.0171 210.91 42.3135C224.233 55.6223 232.61 75.3252 232.61 100.92V132.415C239.213 133.553 244.702 136.263 248.83 140.575C254.445 146.441 257.265 154.979 257.265 165.694V264.1C257.265 274.815 254.445 283.353 248.83 289.219C243.202 295.097 235.047 298 224.987 298H95.7625C85.6515 298 77.4936 295.099 71.8777 289.217C66.2756 283.349 63.4842 274.809 63.4841 264.1V165.694C63.4841 154.984 66.2757 146.445 71.8777 140.577C76.0262 136.232 81.5622 133.515 88.2478 132.391V100.92C88.2478 75.3271 96.5974 55.6247 109.879 42.3154C123.148 29.0183 141.195 22.25 160.321 22.25ZM96.1951 153.853C93.138 153.853 90.8419 154.85 89.2966 156.521C87.7345 158.211 86.7322 160.815 86.7322 164.396V265.289C86.7322 268.871 87.7355 271.507 89.3054 273.227C90.8563 274.925 93.1519 275.941 96.1951 275.941H224.663C227.702 275.941 229.933 274.929 231.427 273.247C232.947 271.535 233.909 268.896 233.909 265.289V164.396C233.909 160.79 232.947 158.184 231.434 156.502C229.946 154.848 227.717 153.853 224.663 153.853H96.1951ZM160.321 44.3086C146.702 44.3086 134.48 49.2322 125.659 58.415C116.839 67.5961 111.28 81.1834 111.28 98.7568V131.794H209.578V98.7568C209.578 81.1888 203.968 67.6018 195.095 58.4189C186.219 49.2328 173.941 44.3086 160.321 44.3086Z" fill="#00C7B2" stroke="#00C7B2" stroke-width="4"></path>
</svg>