<?xml version="1.0" encoding="UTF-8"?>
<svg id="Layer_1" xmlns="http://www.w3.org/2000/svg" version="1.1" viewBox="0 0 118 45">
  
  <defs>
    
  </defs>
  <g>
    <path class="st1" d="M55.6,29c-.4,0-.7-.1-1-.3-.2-.2-.3-.5-.3-.9v-12.4h-3.7v13.2c0,1,.3,1.8.9,2.5.6.6,1.5,1,2.7,1s2.5,0,3.7,0c1.2,0,2.4,0,3.6-.2l-.2-2.8h-5.8Z"></path>
    <path class="st1" d="M73.7,26.3c.6-.5.8-1.4.8-2.4,0-1.3-.4-2.4-1.3-3-.9-.7-2.3-1-4.3-1s-2.6.2-3.5.6c-.9.4-1.6,1.1-2,2-.4.9-.6,2.1-.6,3.7s.2,2.6.6,3.5c.4.9,1.1,1.6,2,2,.9.4,2.1.6,3.6.6s1.2,0,1.8,0c.6,0,1.2-.1,1.8-.3s1.1-.3,1.6-.5l-.3-2.2c-.8,0-1.6.2-2.4.2-.8,0-1.5,0-2,0s-1.3-.1-1.8-.3c-.4-.2-.7-.6-.9-1.1,0-.3-.1-.6-.2-.9h4.2c1.4,0,2.3-.3,2.9-.8ZM69.9,25.1h-3.3c0-.6,0-1.2.2-1.5.1-.5.4-.8.8-1,.4-.2.9-.3,1.5-.3s1.3.1,1.6.3c.3.2.5.6.5,1.2,0,.4,0,.7-.2,1-.1.2-.5.3-1,.3Z"></path>
    <path class="st1" d="M85.7,20.2c-.7-.3-1.5-.4-2.5-.4s-1.3,0-2,0c-.8,0-1.5.1-2.3.2-.8,0-1.4.2-2,.3l.3,2.4c1,0,1.9-.1,2.8-.1.9,0,1.7,0,2.3,0s1.2.1,1.5.4c.3.3.4.7.4,1.2v.6h-4.3c-1.1,0-2,.3-2.6.8-.6.5-1,1.3-1,2.2v1.2c0,.7.2,1.4.5,1.8s.8.9,1.4,1.1,1.2.4,1.9.4,1.4-.1,2-.4c.6-.2,1.1-.5,1.5-.9.4-.3.7-.6,1-1l.4,1.9h2.8v-7.8c0-1.1-.2-2-.6-2.6-.4-.6-.9-1.1-1.6-1.3ZM84,28.7c-.5.3-1,.6-1.5.7-.5.2-.9.3-1.3.3s-.9-.1-1.1-.3c-.2-.2-.3-.5-.3-.9v-.6c0-.4,0-.6.3-.8.2-.2.5-.3.9-.3h3.2s0,1.8,0,1.8c0,0-.1,0-.2.1Z"></path>
    <path class="st1" d="M98.4,18.4c0,.5,0,1,0,1.6,0,.3,0,.6,0,1-.5-.3-1-.6-1.5-.7-.8-.2-1.6-.4-2.4-.4s-1.8.2-2.5.6c-.7.4-1.2,1-1.5,1.9-.3.9-.5,2.1-.5,3.7s.3,3.6,1,4.7c.7,1.1,1.7,1.6,3.3,1.6s2.1-.2,2.8-.7c.7-.4,1.2-.9,1.7-1.5l.3,1.9h2.8V15.2h-3.6v3.2ZM97.8,28.9c-.3.2-.6.3-.9.4-.3,0-.7.1-1.1.1s-.8,0-1.2-.3c-.3-.2-.5-.5-.6-1-.1-.5-.2-1.2-.2-2.2s0-1.8.2-2.3c.1-.5.4-.9.7-1,.3-.2.7-.3,1.2-.3s1.1,0,1.5.2c.3,0,.7.2,1.1.3v5.5c-.2.2-.5.3-.7.4Z"></path>
    <path class="st1" d="M114.6,26.3c-.5-.5-1.2-.9-2.2-1.2l-3.1-.7c-.6-.1-1-.3-1.2-.4-.2-.1-.4-.4-.4-.7s0-.5.2-.6c.1-.1.4-.2.7-.2.3,0,.8,0,1.4,0,.7,0,1.5,0,2.3,0,.8,0,1.6,0,2.3,0l.2-2.2c-.5,0-1.1-.2-1.7-.2-.6,0-1.3-.1-2-.1-.7,0-1.3,0-1.9,0-1.2,0-2.2.1-3,.3-.7.2-1.3.6-1.6,1.1-.3.5-.5,1.1-.5,1.9s0,1.2.2,1.7c.2.5.5.9.9,1.2s1,.6,1.8.8l3,.7c.6.1,1,.3,1.3.4.3.1.4.4.4.7s0,.5-.2.6c-.2.1-.5.2-.9.3-.4,0-1.1,0-1.9,0h-3c-.4,0-.8,0-1.1,0l-.2,2.2c1.2.2,2.2.3,3.2.4,1,0,1.7,0,2.2,0,1.3,0,2.3,0,3.1-.3.8-.2,1.4-.6,1.8-1.1.4-.5.6-1.3.6-2.3s-.2-1.8-.7-2.3Z"></path>
  </g>
  <path class="st0" d="M36.3,16.8c1.6,1.6.5,4.2-1.8,4.2s-2.5,1.1-2.5,2.5v4c0,.8-.4,1.6-1.1,2.1l-22.1,14.4c-1.7,1.1-3.9-.1-3.9-2.1v-18.3c0-1.4-1.1-2.5-2.5-2.5-2.2,0-3.3-2.7-1.8-4.2L16.8.7c1-1,2.6-1,3.5,0l16,16ZM14.7,15.5c-.5.5-.7,1.1-.7,1.8v7.9c0,2,2.2,3.2,3.9,2.1l4.1-2.7c.7-.5,1.1-1.3,1.1-2.1v-5.3c0-.7-.3-1.3-.7-1.8l-2.1-2.1c-1-1-2.6-1-3.5,0l-2.1,2.1Z"></path>
</svg>