<svg width="320" height="320" viewBox="0 0 320 320" fill="none" xmlns="http://www.w3.org/2000/svg">
<path d="M216.193 85.5777C192.697 83.8914 172.574 98.8432 161.67 98.8432C150.315 98.8432 132.89 86.1398 114.229 86.477C89.946 86.7019 67.7994 100.529 54.9836 122.226C30.0265 165.957 48.9129 230.936 73.3079 266.236C85.112 283.885 99.614 303.334 118.5 302.772C136.488 301.76 143.233 290.855 165.267 290.855C187.301 290.855 193.259 302.772 212.371 302.21C232.156 301.76 244.185 284.56 256.439 267.135C270.154 246.787 275.888 227.338 276 226.214C275.438 226.214 238.115 211.825 237.665 168.543C237.553 132.344 267.344 114.807 268.468 114.02C251.605 89.2875 225.299 86.477 216.193 85.5777ZM201.578 62.1945C211.584 49.9408 218.329 33.3027 216.643 16.4398C202.14 17.0019 184.715 26.1079 174.373 38.1367C165.267 48.929 157.173 66.1291 159.421 82.4299C175.497 83.5541 191.798 74.2233 201.578 62.1945Z" fill="#00C7B2"></path>
</svg>