<?xml version="1.0" encoding="UTF-8"?>
<svg id="Layer_1" xmlns="http://www.w3.org/2000/svg" version="1.1" viewBox="0 0 38 46">
  
  <defs>
    
  </defs>
  <path class="st0" d="M36.8,17.5c1.6,1.6.5,4.2-1.8,4.2s-2.5,1.1-2.5,2.5v4c0,.8-.4,1.6-1.1,2.1l-22.1,14.4c-1.7,1.1-3.9-.1-3.9-2.1v-18.3c0-1.4-1.1-2.5-2.5-2.5-2.2,0-3.3-2.7-1.8-4.2L17.3,1.5c1-1,2.6-1,3.5,0l16,16ZM15.2,16.3c-.5.5-.7,1.1-.7,1.8v7.9c0,2,2.2,3.2,3.9,2.1l4.1-2.7c.7-.5,1.1-1.3,1.1-2.1v-5.3c0-.7-.3-1.3-.7-1.8l-2.1-2.1c-1-1-2.6-1-3.5,0l-2.1,2.1Z"></path>
</svg>