<svg width="94" height="16" viewBox="0 0 94 16" fill="none" xmlns="http://www.w3.org/2000/svg">
<path opacity="0.6" d="M28.6384 3.228C29.4784 3.228 30.1457 3.30267 30.6404 3.452C31.1444 3.592 31.5084 3.844 31.7324 4.208C31.9564 4.572 32.0684 5.08533 32.0684 5.748C32.0684 6.43867 31.9331 6.966 31.6624 7.33C31.4011 7.68467 30.9671 7.89 30.3604 7.946V8.03C31.1071 8.09533 31.6297 8.34733 31.9284 8.786C32.2271 9.21533 32.3764 9.81733 32.3764 10.592C32.3764 11.2547 32.2597 11.768 32.0264 12.132C31.8024 12.496 31.4477 12.7527 30.9624 12.902C30.4864 13.042 29.8611 13.112 29.0864 13.112C28.4611 13.112 27.9151 13.1073 27.4484 13.098C26.9911 13.098 26.5664 13.0887 26.1744 13.07C25.7824 13.0513 25.3811 13.028 24.9704 13L25.1804 11.516C25.4044 11.5253 25.8337 11.5347 26.4684 11.544C27.1124 11.5533 27.8591 11.558 28.7084 11.558C29.1004 11.558 29.4084 11.5207 29.6324 11.446C29.8564 11.3713 30.0104 11.236 30.0944 11.04C30.1877 10.8347 30.2344 10.5453 30.2344 10.172C30.2344 9.77067 30.1877 9.46733 30.0944 9.262C30.0011 9.04733 29.8377 8.898 29.6044 8.814C29.3804 8.73 29.0677 8.68333 28.6664 8.674H25.1664V7.316H28.6384C28.9837 7.30667 29.2544 7.26933 29.4504 7.204C29.6557 7.13867 29.8004 7.01267 29.8844 6.826C29.9684 6.63933 30.0104 6.378 30.0104 6.042C30.0104 5.69667 29.9637 5.43533 29.8704 5.258C29.7864 5.07133 29.6371 4.94533 29.4224 4.88C29.2077 4.81467 28.9091 4.782 28.5264 4.782C28.0037 4.782 27.5417 4.782 27.1404 4.782C26.7391 4.782 26.3797 4.78667 26.0624 4.796C25.7451 4.796 25.4511 4.80533 25.1804 4.824L24.9704 3.34C25.3437 3.30267 25.7031 3.27933 26.0484 3.27C26.4031 3.25133 26.7857 3.242 27.1964 3.242C27.6071 3.23267 28.0877 3.228 28.6384 3.228ZM27.0704 3.34V13H24.9704V3.34H27.0704ZM35.4235 6.084L35.6755 7.456L35.8715 7.638V13H33.7995V6.084H35.4235ZM38.7975 5.902L38.6015 7.82H38.0275C37.7008 7.82 37.3601 7.86667 37.0055 7.96C36.6508 8.05333 36.2028 8.19333 35.6615 8.38L35.5215 7.218C36.0068 6.78867 36.4968 6.462 36.9915 6.238C37.4861 6.014 37.9668 5.902 38.4335 5.902H38.7975ZM41.8881 6.084V13H39.8301V6.084H41.8881ZM41.3141 3.032C41.7247 3.032 41.9301 3.242 41.9301 3.662V4.404C41.9301 4.824 41.7247 5.034 41.3141 5.034H40.4181C40.0074 5.034 39.8021 4.824 39.8021 4.404V3.662C39.8021 3.242 40.0074 3.032 40.4181 3.032H41.3141ZM46.8632 5.902C47.1152 5.902 47.3906 5.916 47.6892 5.944C47.9879 5.96267 48.2866 6.00467 48.5852 6.07C48.8932 6.126 49.1732 6.21 49.4252 6.322L49.2012 7.624C48.8279 7.61467 48.4686 7.60533 48.1232 7.596C47.7872 7.58667 47.4839 7.582 47.2132 7.582C46.7932 7.582 46.4619 7.638 46.2192 7.75C45.9766 7.862 45.7992 8.06267 45.6872 8.352C45.5846 8.632 45.5332 9.024 45.5332 9.528C45.5332 10.0413 45.5846 10.4427 45.6872 10.732C45.7992 11.0213 45.9766 11.222 46.2192 11.334C46.4619 11.446 46.7932 11.502 47.2132 11.502C47.3626 11.502 47.5539 11.4973 47.7872 11.488C48.0206 11.4787 48.2726 11.4693 48.5432 11.46C48.8139 11.4413 49.0799 11.4133 49.3412 11.376L49.5372 12.692C49.1639 12.86 48.7392 12.9813 48.2632 13.056C47.7872 13.1307 47.3159 13.168 46.8492 13.168C45.9906 13.168 45.3046 13.0513 44.7912 12.818C44.2872 12.5753 43.9232 12.188 43.6992 11.656C43.4752 11.124 43.3632 10.4147 43.3632 9.528C43.3632 8.64133 43.4752 7.932 43.6992 7.4C43.9326 6.868 44.3059 6.48533 44.8192 6.252C45.3326 6.01867 46.0139 5.902 46.8632 5.902ZM57.4583 6.084L55.6523 8.492C55.5683 8.62267 55.4609 8.74867 55.3303 8.87C55.1996 8.99133 55.0923 9.08 55.0083 9.136V9.192C55.0923 9.23867 55.1996 9.33667 55.3303 9.486C55.4609 9.63533 55.5683 9.78467 55.6523 9.934L57.6963 13H55.3863L53.0203 9.108L55.1483 6.084H57.4583ZM52.8383 3.2L52.8523 7.246C52.8523 7.57267 52.8336 7.89 52.7963 8.198C52.7589 8.506 52.7029 8.80933 52.6283 9.108C52.6936 9.39733 52.7449 9.696 52.7823 10.004C52.8196 10.3027 52.8383 10.5827 52.8383 10.844V13H50.7663V3.2H52.8383ZM53.8043 8.52V9.78H52.1943V8.52H53.8043ZM61.2186 5.902C61.5546 5.902 61.9186 5.916 62.3106 5.944C62.7026 5.96267 63.0852 5.99067 63.4586 6.028C63.8319 6.06533 64.1632 6.112 64.4526 6.168L64.3126 7.456C63.8646 7.44667 63.4119 7.442 62.9546 7.442C62.5066 7.43267 62.0679 7.428 61.6386 7.428C61.2746 7.41867 60.9946 7.42333 60.7986 7.442C60.6026 7.46067 60.4626 7.50733 60.3786 7.582C60.3039 7.64733 60.2666 7.76867 60.2666 7.946C60.2666 8.15133 60.3366 8.29133 60.4766 8.366C60.6166 8.43133 60.8499 8.506 61.1766 8.59L62.9826 9.024C63.5612 9.17333 63.9906 9.39733 64.2706 9.696C64.5506 9.98533 64.6906 10.424 64.6906 11.012C64.6906 11.5907 64.5832 12.034 64.3686 12.342C64.1539 12.65 63.8132 12.8647 63.3466 12.986C62.8799 13.098 62.2779 13.154 61.5406 13.154C61.2512 13.154 60.8219 13.14 60.2526 13.112C59.6832 13.084 59.0579 13.014 58.3766 12.902L58.5166 11.614C58.6846 11.6233 58.8992 11.6327 59.1606 11.642C59.4219 11.642 59.7066 11.642 60.0146 11.642C60.3226 11.642 60.6306 11.642 60.9386 11.642C61.4146 11.642 61.7786 11.6327 62.0306 11.614C62.2826 11.586 62.4552 11.53 62.5486 11.446C62.6419 11.362 62.6886 11.236 62.6886 11.068C62.6886 10.8627 62.6092 10.7227 62.4506 10.648C62.2919 10.5733 62.0399 10.494 61.6946 10.41L59.9446 9.976C59.5059 9.85467 59.1652 9.70067 58.9226 9.514C58.6799 9.32733 58.5072 9.09867 58.4046 8.828C58.3112 8.55733 58.2646 8.23533 58.2646 7.862C58.2646 7.386 58.3579 7.008 58.5446 6.728C58.7406 6.43867 59.0532 6.22867 59.4826 6.098C59.9212 5.96733 60.4999 5.902 61.2186 5.902ZM73.4634 3.34C73.6408 3.34 73.7948 3.39133 73.9254 3.494C74.0654 3.59667 74.1588 3.732 74.2054 3.9L77.0054 13H74.8214L72.8474 5.902C72.8101 5.74333 72.7728 5.58467 72.7354 5.426C72.6981 5.258 72.6654 5.09933 72.6374 4.95H72.2594C72.2314 5.09933 72.1988 5.258 72.1614 5.426C72.1334 5.58467 72.0961 5.74333 72.0494 5.902L70.0754 13H67.8774L70.6914 3.9C70.7381 3.732 70.8268 3.59667 70.9574 3.494C71.0974 3.39133 71.2561 3.34 71.4334 3.34H73.4634ZM74.9474 8.842V10.452H69.9354V8.842H74.9474ZM82.4139 5.916C83.2819 5.916 83.9026 6.23333 84.2759 6.868C84.6493 7.50267 84.8359 8.41267 84.8359 9.598C84.8359 10.522 84.7379 11.2453 84.5419 11.768C84.3553 12.2907 84.0659 12.6593 83.6739 12.874C83.2913 13.0793 82.8106 13.182 82.2319 13.182C81.7373 13.182 81.2659 13.112 80.8179 12.972C80.3699 12.832 79.9733 12.5987 79.6279 12.272L79.7679 11.348C80.0759 11.4413 80.3559 11.5253 80.6079 11.6C80.8693 11.6653 81.1633 11.698 81.4899 11.698C81.7886 11.698 82.0266 11.6467 82.2039 11.544C82.3813 11.4413 82.5073 11.2407 82.5819 10.942C82.6659 10.634 82.7079 10.1907 82.7079 9.612C82.7079 9.04267 82.6706 8.60867 82.5959 8.31C82.5213 8.002 82.3999 7.792 82.2319 7.68C82.0639 7.55867 81.8446 7.498 81.5739 7.498C81.2753 7.498 80.9999 7.55867 80.7479 7.68C80.4959 7.792 80.2113 7.95533 79.8939 8.17L79.6279 7.218C79.8146 6.966 80.0526 6.742 80.3419 6.546C80.6406 6.35 80.9673 6.196 81.3219 6.084C81.6766 5.972 82.0406 5.916 82.4139 5.916ZM79.5439 6.084L79.7399 7.344L79.9359 7.554V12.048L79.8659 12.216C79.8939 12.496 79.9126 12.7853 79.9219 13.084C79.9406 13.392 79.9453 13.6953 79.9359 13.994V15.66H77.8639V6.084H79.5439ZM90.8085 5.916C91.6765 5.916 92.2971 6.23333 92.6705 6.868C93.0438 7.50267 93.2305 8.41267 93.2305 9.598C93.2305 10.522 93.1325 11.2453 92.9365 11.768C92.7498 12.2907 92.4605 12.6593 92.0685 12.874C91.6858 13.0793 91.2051 13.182 90.6265 13.182C90.1318 13.182 89.6605 13.112 89.2125 12.972C88.7645 12.832 88.3678 12.5987 88.0225 12.272L88.1625 11.348C88.4705 11.4413 88.7505 11.5253 89.0025 11.6C89.2638 11.6653 89.5578 11.698 89.8845 11.698C90.1831 11.698 90.4211 11.6467 90.5985 11.544C90.7758 11.4413 90.9018 11.2407 90.9765 10.942C91.0605 10.634 91.1025 10.1907 91.1025 9.612C91.1025 9.04267 91.0651 8.60867 90.9905 8.31C90.9158 8.002 90.7945 7.792 90.6265 7.68C90.4585 7.55867 90.2391 7.498 89.9685 7.498C89.6698 7.498 89.3945 7.55867 89.1425 7.68C88.8905 7.792 88.6058 7.95533 88.2885 8.17L88.0225 7.218C88.2091 6.966 88.4471 6.742 88.7365 6.546C89.0351 6.35 89.3618 6.196 89.7165 6.084C90.0711 5.972 90.4351 5.916 90.8085 5.916ZM87.9385 6.084L88.1345 7.344L88.3305 7.554V12.048L88.2605 12.216C88.2885 12.496 88.3071 12.7853 88.3165 13.084C88.3351 13.392 88.3398 13.6953 88.3305 13.994V15.66H86.2585V6.084H87.9385Z" fill="white"/>
<rect x="3.70605" width="8" height="2.62692" rx="1.31346" fill="white"/>
<rect x="3.70605" y="6.68671" width="8" height="2.62692" rx="1.31346" fill="white"/>
<rect x="3.70605" y="13.3734" width="8" height="2.62692" rx="1.31346" fill="white"/>
<rect x="8.00439" y="3.34332" width="8" height="2.62692" rx="1.31346" fill="white"/>
<rect x="2.61133" width="16.0003" height="2.61053" rx="1.30526" transform="rotate(90 2.61133 0)" fill="white"/>
<path d="M3.70605 3.34332H5.97468C6.70009 3.34332 7.28815 3.93138 7.28815 4.65678V4.65678C7.28815 5.38219 6.70009 5.97024 5.97468 5.97024H3.70605V3.34332Z" fill="white"/>
<path d="M3.70605 10.03H5.97468C6.70009 10.03 7.28815 10.6181 7.28815 11.3435V11.3435C7.28815 12.0689 6.70009 12.657 5.97468 12.657H3.70605V10.03Z" fill="white"/>
<rect x="8.00439" y="10.03" width="8" height="2.62692" rx="1.31346" fill="white"/>
</svg>
