<?xml version="1.0" encoding="UTF-8"?>
<svg id="Layer_1" xmlns="http://www.w3.org/2000/svg" version="1.1" viewBox="0 0 639.3 131.8">
  <!-- Generator: Adobe Illustrator 30.3.0, SVG Export Plug-In . SVG Version: 2.1.3 Build 182)  -->
  <defs>
    <style>
      .st0 {
        fill: #3e3e3e;
      }
    </style>
  </defs>
  <path class="st0" d="M41.3,0h44.2C91.5,0,96.4,4.8,96.4,10.8h0c0,6-4.8,10.8-10.8,10.8h-44.2c-6,0-10.8-4.8-10.8-10.8h0C30.5,4.8,35.4,0,41.3,0Z"/>
  <path class="st0" d="M41.3,55.1h44.2c6,0,10.8,4.8,10.8,10.8h0c0,6-4.8,10.8-10.8,10.8h-44.2c-6,0-10.8-4.8-10.8-10.8h0c0-6,4.8-10.8,10.8-10.8Z"/>
  <path class="st0" d="M41.3,110.1h44.2c6,0,10.8,4.8,10.8,10.8h0c0,6-4.8,10.8-10.8,10.8h-44.2c-6,0-10.8-4.8-10.8-10.8h0c0-6,4.8-10.8,10.8-10.8Z"/>
  <path class="st0" d="M76.7,27.5h44.2c6,0,10.8,4.8,10.8,10.8h0c0,6-4.8,10.8-10.8,10.8h-44.2c-6,0-10.8-4.8-10.8-10.8h0c0-6,4.8-10.8,10.8-10.8Z"/>
  <path class="st0" d="M21.5,10.7v110.3c0,5.9-4.8,10.7-10.7,10.7h0c-5.9,0-10.7-4.8-10.7-10.7V10.7C0,4.8,4.8,0,10.7,0h0c5.9,0,10.7,4.8,10.7,10.7Z"/>
  <path class="st0" d="M30.5,27.5h18.7c6,0,10.8,4.8,10.8,10.8h0c0,6-4.8,10.8-10.8,10.8h-18.7v-21.6Z"/>
  <path class="st0" d="M30.5,82.6h18.7c6,0,10.8,4.8,10.8,10.8h0c0,6-4.8,10.8-10.8,10.8h-18.7v-21.6Z"/>
  <path class="st0" d="M76.7,82.6h44.2c6,0,10.8,4.8,10.8,10.8h0c0,6-4.8,10.8-10.8,10.8h-44.2c-6,0-10.8-4.8-10.8-10.8h0c0-6,4.8-10.8,10.8-10.8Z"/>
  <path class="st0" d="M572.8,67.3c0-17.9,15.4-24.9,32.9-24.9s31,8,31,23.5h-20.4c-.4-4.1-4-8.3-11-8.3s-10.5,3.2-10.5,7.9c0,7.2,12.5,8.2,20.7,9.5,14.4,2.4,23.8,8.4,23.8,22.3s-12.6,26.1-35,26.1-33.2-9.8-33.2-23.7h22.6c.5,4.8,4.5,8.3,11.7,8.3s11.3-3.6,11.3-8.1c0-6.7-9.5-7.4-19.3-9.3-13.7-2.6-24.7-8.2-24.7-23.4Z"/>
  <path class="st0" d="M513.9,95.7v26.2h-23.4V16.8h23.4v58h1.1l22.5-31h26.1l-27.2,33.6,29.1,44.6h-27.1l-19.9-31.6-4.6,5.4Z"/>
  <path class="st0" d="M403.7,86.4v-7.8c0-22.1,14.1-36.2,36.2-36.2s33.5,12.5,33.7,29.4h-21.1c-.4-5.7-4.1-11.4-11.9-11.4s-13.5,7.2-13.5,18.4v7.4c0,12.2,5,19.3,13.5,19.3s11.4-4.2,12.1-11h21.1c-.3,17.1-12.1,29-34,29s-36.1-14-36.1-37Z"/>
  <path class="st0" d="M359.4,21.4c0-7.1,5.6-11.8,13.9-11.8s13.9,4.7,13.9,11.8-5.5,11.6-13.9,11.6-13.9-4.6-13.9-11.6ZM361.7,121.9V43.8h23.4v78.2h-23.4Z"/>
  <path class="st0" d="M296.2,121.9V43.8h23.4v12.4h1.1c1.4-5.3,7.2-13.5,18.5-13.5s5.6.2,7,.7v19.8c-1.6-.6-5.1-1-8.6-1-12,0-17.4,6.9-17.4,17.3v42.4h-24Z"/>
  <path class="st0" d="M199.4,121.9V22h44.2c18.4,0,30.7,9.1,30.7,24.5s-8.1,19.9-17.8,21.8v1.1c11.1.8,22.5,8.5,22.5,24.2s-15.2,28.3-34.7,28.3h-44.9ZM223.2,39.1v23.6h11.7c11.1,0,15.9-4.8,15.9-11.9s-4.8-11.6-13.3-11.6h-14.3ZM223.2,78.2v26.7h13c13.1,0,18.4-5.1,18.4-13.2s-5.4-13.5-16-13.5h-15.4Z"/>
</svg>