<?xml version="1.0" encoding="UTF-8"?>
<svg id="Layer_1" data-name="Layer 1" xmlns="http://www.w3.org/2000/svg" viewBox="0 0 94 16">
  <defs>
    <style>
      .cls-1 {
        isolation: isolate;
        opacity: .6;
      }

      .cls-1, .cls-2 {
        fill: #3e3e3e;
      }
    </style>
  </defs>
  <path class="cls-1" d="M28.64,3.23c.84,0,1.51.07,2,.22.5.14.87.39,1.09.76.22.36.34.88.34,1.54s-.14,1.22-.41,1.58c-.26.35-.7.56-1.3.62v.08c.75.07,1.27.32,1.57.76.3.43.45,1.03.45,1.81,0,.66-.12,1.18-.35,1.54-.22.36-.58.62-1.06.77-.48.14-1.1.21-1.88.21-.63,0-1.17,0-1.64-.01-.46,0-.88,0-1.27-.03-.39-.02-.79-.04-1.2-.07l.21-1.48c.22,0,.65.02,1.29.03.64,0,1.39.01,2.24.01.39,0,.7-.04.92-.11.22-.07.38-.21.46-.41.09-.21.14-.49.14-.87,0-.4-.05-.7-.14-.91-.09-.21-.26-.36-.49-.45-.22-.08-.54-.13-.94-.14h-3.5v-1.36h3.47c.35,0,.62-.05.81-.11.21-.07.35-.19.43-.38.08-.19.13-.45.13-.78s-.05-.61-.14-.78c-.08-.19-.23-.31-.45-.38-.21-.07-.51-.1-.9-.1h-1.39c-.4,0-.76,0-1.08.01-.32,0-.61,0-.88.03l-.21-1.48c.37-.04.73-.06,1.08-.07.35-.02.74-.03,1.15-.03.41,0,.89-.01,1.44-.01ZM27.07,3.34v9.66h-2.1V3.34h2.1ZM35.42,6.08l.25,1.37.2.18v5.36h-2.07v-6.92h1.62ZM38.8,5.9l-.2,1.92h-.57c-.33,0-.67.05-1.02.14-.35.09-.8.23-1.34.42l-.14-1.16c.49-.43.98-.76,1.47-.98.49-.22.98-.34,1.44-.34h.36ZM41.89,6.08v6.92h-2.06v-6.92h2.06ZM41.31,3.03c.41,0,.62.21.62.63v.74c0,.42-.21.63-.62.63h-.9c-.41,0-.62-.21-.62-.63v-.74c0-.42.21-.63.62-.63h.9ZM46.86,5.9c.25,0,.53.01.83.04.3.02.6.06.9.13.31.06.59.14.84.25l-.22,1.3c-.37,0-.73-.02-1.08-.03-.34,0-.64-.01-.91-.01-.42,0-.75.06-.99.17-.24.11-.42.31-.53.6-.1.28-.15.67-.15,1.18s.05.91.15,1.2c.11.29.29.49.53.6.24.11.57.17.99.17.15,0,.34,0,.57-.01.23,0,.49-.02.76-.03.27-.02.54-.05.8-.08l.2,1.32c-.37.17-.8.29-1.27.36-.48.07-.95.11-1.41.11-.86,0-1.54-.12-2.06-.35-.5-.24-.87-.63-1.09-1.16-.22-.53-.34-1.24-.34-2.13s.11-1.6.34-2.13c.23-.53.61-.91,1.12-1.15.51-.23,1.19-.35,2.04-.35ZM57.46,6.08l-1.81,2.41c-.08.13-.19.26-.32.38-.13.12-.24.21-.32.27v.06c.08.05.19.14.32.29.13.15.24.3.32.45l2.04,3.07h-2.31l-2.37-3.89,2.13-3.02h2.31ZM52.84,3.2v4.05c.01.33,0,.64-.04.95-.04.31-.09.61-.17.91.07.29.12.59.15.9.04.3.06.58.06.84v2.16h-2.07V3.2h2.07ZM53.8,8.52v1.26h-1.61v-1.26h1.61ZM61.22,5.9c.34,0,.7.01,1.09.04.39.02.77.05,1.15.08.37.04.7.08.99.14l-.14,1.29c-.45,0-.9-.01-1.36-.01-.45,0-.89-.01-1.32-.01-.36,0-.64,0-.84.01s-.34.07-.42.14c-.07.07-.11.19-.11.36,0,.21.07.35.21.42.14.07.37.14.7.22l1.81.43c.58.15,1.01.37,1.29.67.28.29.42.73.42,1.32s-.11,1.02-.32,1.33c-.21.31-.56.52-1.02.64-.47.11-1.07.17-1.81.17-.29,0-.72-.01-1.29-.04-.57-.03-1.19-.1-1.88-.21l.14-1.29c.17,0,.38.02.64.03h1.78c.48,0,.84,0,1.09-.03.25-.03.42-.08.52-.17.09-.08.14-.21.14-.38,0-.21-.08-.35-.24-.42-.16-.07-.41-.15-.76-.24l-1.75-.43c-.44-.12-.78-.28-1.02-.46-.24-.19-.42-.42-.52-.69-.09-.27-.14-.59-.14-.97,0-.48.09-.85.28-1.13.2-.29.51-.5.94-.63.44-.13,1.02-.2,1.74-.2ZM73.46,3.34c.18,0,.33.05.46.15.14.1.23.24.28.41l2.8,9.1h-2.18l-1.97-7.1c-.04-.16-.07-.32-.11-.48-.04-.17-.07-.33-.1-.48h-.38c-.03.15-.06.31-.1.48-.03.16-.07.32-.11.48l-1.97,7.1h-2.2l2.81-9.1c.05-.17.14-.3.27-.41.14-.1.3-.15.48-.15h2.03ZM74.95,8.84v1.61h-5.01v-1.61h5.01ZM82.41,5.92c.87,0,1.49.32,1.86.95.37.63.56,1.54.56,2.73,0,.92-.1,1.65-.29,2.17-.19.52-.48.89-.87,1.11-.38.21-.86.31-1.44.31-.49,0-.97-.07-1.41-.21s-.84-.37-1.19-.7l.14-.92c.31.09.59.18.84.25.26.07.56.1.88.1.3,0,.54-.05.71-.15.18-.1.3-.3.38-.6.08-.31.13-.75.13-1.33s-.04-1-.11-1.3c-.07-.31-.2-.52-.36-.63-.17-.12-.39-.18-.66-.18-.3,0-.57.06-.83.18-.25.11-.54.28-.85.49l-.27-.95c.19-.25.42-.48.71-.67.3-.2.63-.35.98-.46.35-.11.72-.17,1.09-.17ZM79.54,6.08l.2,1.26.2.21v4.49l-.07.17c.03.28.05.57.06.87.02.31.02.61.01.91v1.67h-2.07V6.08h1.68ZM90.81,5.92c.87,0,1.49.32,1.86.95.37.63.56,1.54.56,2.73,0,.92-.1,1.65-.29,2.17-.19.52-.48.89-.87,1.11-.38.21-.86.31-1.44.31-.49,0-.97-.07-1.41-.21s-.84-.37-1.19-.7l.14-.92c.31.09.59.18.84.25.26.07.56.1.88.1.3,0,.54-.05.71-.15.18-.1.3-.3.38-.6.08-.31.13-.75.13-1.33s-.04-1-.11-1.3c-.07-.31-.2-.52-.36-.63-.17-.12-.39-.18-.66-.18-.3,0-.57.06-.83.18-.25.11-.54.28-.85.49l-.27-.95c.19-.25.42-.48.71-.67.3-.2.63-.35.98-.46.35-.11.72-.17,1.09-.17ZM87.94,6.08l.2,1.26.2.21v4.49l-.07.17c.03.28.05.57.06.87.02.31.02.61.01.91v1.67h-2.07V6.08h1.68Z"/>
  <path class="cls-2" d="M5.02,0h5.37c.73,0,1.31.59,1.31,1.31h0c0,.73-.59,1.31-1.31,1.31h-5.37c-.73,0-1.31-.59-1.31-1.31h0c0-.73.59-1.31,1.31-1.31Z"/>
  <path class="cls-2" d="M5.02,6.69h5.37c.73,0,1.31.59,1.31,1.31h0c0,.73-.59,1.31-1.31,1.31h-5.37c-.73,0-1.31-.59-1.31-1.31h0c0-.73.59-1.31,1.31-1.31Z"/>
  <path class="cls-2" d="M5.02,13.37h5.37c.73,0,1.31.59,1.31,1.31h0c0,.73-.59,1.31-1.31,1.31h-5.37c-.73,0-1.31-.59-1.31-1.31h0c0-.73.59-1.31,1.31-1.31Z"/>
  <path class="cls-2" d="M9.32,3.34h5.37c.73,0,1.31.59,1.31,1.31h0c0,.73-.59,1.31-1.31,1.31h-5.37c-.73,0-1.31-.59-1.31-1.31h0c0-.73.59-1.31,1.31-1.31Z"/>
  <rect class="cls-2" x="0" y="0" width="2.61" height="16" rx="1.31" ry="1.31"/>
  <path class="cls-2" d="M3.71,3.34h2.27c.73,0,1.31.59,1.31,1.31h0c0,.73-.59,1.31-1.31,1.31h-2.27v-2.63Z"/>
  <path class="cls-2" d="M3.71,10.03h2.27c.73,0,1.31.59,1.31,1.31h0c0,.73-.59,1.31-1.31,1.31h-2.27v-2.63Z"/>
  <path class="cls-2" d="M9.32,10.03h5.37c.73,0,1.31.59,1.31,1.31h0c0,.73-.59,1.31-1.31,1.31h-5.37c-.73,0-1.31-.59-1.31-1.31h0c0-.73.59-1.31,1.31-1.31Z"/>
</svg>