<svg width="189" height="49" viewBox="0 0 189 49" fill="none" xmlns="http://www.w3.org/2000/svg">
<path d="M160.375 24.6562C160.375 17 166.938 14.0312 174.406 14.0312C182.094 14.0312 187.656 17.4375 187.656 24.0625H178.969C178.781 22.3125 177.25 20.5312 174.281 20.5312C171.375 20.5312 169.781 21.9062 169.781 23.9062C169.781 27 175.125 27.4062 178.625 27.9688C184.781 29 188.781 31.5625 188.781 37.4688C188.781 44.3438 183.406 48.625 173.844 48.625C164.688 48.625 159.656 44.4375 159.656 38.5H169.312C169.531 40.5625 171.219 42.0625 174.312 42.0625C177.719 42.0625 179.156 40.5312 179.156 38.625C179.156 35.75 175.094 35.4688 170.938 34.6562C165.094 33.5312 160.375 31.1562 160.375 24.6562Z" fill="black"/>
<path d="M135.25 36.8125V48H125.281V3.09375H135.25V27.8438H135.719L145.312 14.625H156.469L144.875 28.9688L157.281 48H145.719L137.219 34.5L135.25 36.8125Z" fill="black"/>
<path d="M88.1875 32.8125V29.5C88.1875 20.0625 94.1875 14.0312 103.625 14.0312C112.562 14.0312 117.906 19.375 118 26.5938H109C108.812 24.1562 107.25 21.7188 103.938 21.7188C100.281 21.7188 98.1875 24.7812 98.1875 29.5625V32.7188C98.1875 37.9062 100.312 40.9375 103.938 40.9375C107.344 40.9375 108.812 39.125 109.094 36.25H118.094C117.969 43.5625 112.906 48.625 103.594 48.625C93.9688 48.625 88.1875 42.6562 88.1875 32.8125Z" fill="black"/>
<path d="M69.2812 5.09375C69.2812 2.0625 71.6562 0.0625 75.2188 0.0625C78.7812 0.0625 81.1562 2.0625 81.1562 5.09375C81.1562 8.09375 78.8125 10.0625 75.2188 10.0625C71.6875 10.0625 69.2812 8.09375 69.2812 5.09375ZM70.25 48V14.625H80.2188V48H70.25Z" fill="black"/>
<path d="M42.2812 48V14.625H52.25V19.9062H52.7188C53.3125 17.625 55.7812 14.1562 60.625 14.1562C62.0312 14.1562 63 14.25 63.625 14.4375V22.9062C62.9375 22.6562 61.4375 22.5 59.9688 22.5C54.8438 22.5 52.5312 25.4375 52.5312 29.9062V48H42.2812Z" fill="black"/>
<path d="M0.96875 48V5.34375H19.8438C27.6875 5.34375 32.9375 9.25 32.9375 15.8125C32.9375 21.25 29.4688 24.3125 25.3438 25.125V25.5938C30.0938 25.9375 34.9688 29.2188 34.9688 35.9062C34.9688 43.6562 28.4688 48 20.1562 48H0.96875ZM11.125 12.625V22.6875H16.125C20.875 22.6875 22.9062 20.6562 22.9062 17.5938C22.9062 14.5625 20.8438 12.625 17.25 12.625H11.125ZM11.125 29.3125V40.7188H16.6875C22.2812 40.7188 24.5625 38.5625 24.5625 35.0625C24.5625 31.5625 22.25 29.3125 17.7188 29.3125H11.125Z" fill="black"/>
</svg>
