<?xml version="1.0" encoding="UTF-8"?>
<!--Generator: Apple Native CoreSVG 341-->
<!DOCTYPE svg
PUBLIC "-//W3C//DTD SVG 1.1//EN"
       "http://www.w3.org/Graphics/SVG/1.1/DTD/svg11.dtd">
<svg version="1.1" xmlns="http://www.w3.org/2000/svg" xmlns:xlink="http://www.w3.org/1999/xlink" viewBox="0 0 153.062 185.812">
 <g>
  <rect height="185.812" opacity="0" width="153.062" x="0" y="0"/>
  <path d="M153.062 51.875L153.062 172.75C153.062 180.812 148.562 185.75 141 185.75L100.812 185.75C107.556 185.75 111.864 181.824 112.708 175.25L137.875 175.25C141.188 175.25 142.562 173.812 142.562 170.5L142.562 54C142.562 50.6875 141.188 49.25 137.875 49.25L112.875 49.25L112.875 38.8125L141 38.8125C148.562 38.8125 153.062 43.6875 153.062 51.875ZM128.062 131.562L128.062 144.188C128.062 145.562 127.188 146.562 125.688 146.562L112.875 146.562L112.875 129.125L125.688 129.125C127.188 129.125 128.062 130.125 128.062 131.562ZM128.062 102.312L128.062 114.875C128.062 116.312 127.188 117.25 125.688 117.25L112.875 117.25L112.875 99.875L125.688 99.875C127.188 99.875 128.062 100.812 128.062 102.312ZM128.062 73L128.062 85.625C128.062 87 127.188 88 125.688 88L112.875 88L112.875 70.625L125.688 70.625C127.188 70.625 128.062 71.5625 128.062 73Z" fill="white" fill-opacity="0.85"/>
  <path d="M12.0625 185.75L100.812 185.75C108.375 185.75 112.875 180.812 112.875 172.75L112.875 13C112.875 4.875 108.375 0 100.812 0L12.0625 0C4.5 0 0 4.875 0 13L0 172.75C0 180.812 4.5 185.75 12.0625 185.75ZM15.1875 175.25C12 175.25 10.5 173.812 10.5 170.5L10.5 15.1875C10.5 11.875 12 10.5 15.1875 10.5L97.625 10.5C100.875 10.5 102.375 11.875 102.375 15.1875L102.375 170.5C102.375 173.812 100.875 175.25 97.625 175.25ZM31 55.125L47.375 55.125C49.1875 55.125 50.375 53.875 50.375 52L50.375 36.0625C50.375 34.25 49.1875 33 47.375 33L31 33C29.1875 33 28.0625 34.25 28.0625 36.0625L28.0625 52C28.0625 53.875 29.1875 55.125 31 55.125ZM65.4375 55.125L81.75 55.125C83.625 55.125 84.8125 53.875 84.8125 52L84.8125 36.0625C84.8125 34.25 83.625 33 81.75 33L65.4375 33C63.5625 33 62.4375 34.25 62.4375 36.0625L62.4375 52C62.4375 53.875 63.5625 55.125 65.4375 55.125ZM31 87.9375L47.375 87.9375C49.1875 87.9375 50.375 86.6875 50.375 84.8125L50.375 68.875C50.375 67.0625 49.1875 65.8125 47.375 65.8125L31 65.8125C29.1875 65.8125 28.0625 67.0625 28.0625 68.875L28.0625 84.8125C28.0625 86.6875 29.1875 87.9375 31 87.9375ZM65.4375 87.9375L81.75 87.9375C83.625 87.9375 84.8125 86.6875 84.8125 84.8125L84.8125 68.875C84.8125 67.0625 83.625 65.8125 81.75 65.8125L65.4375 65.8125C63.5625 65.8125 62.4375 67.0625 62.4375 68.875L62.4375 84.8125C62.4375 86.6875 63.5625 87.9375 65.4375 87.9375ZM31 120.688L47.375 120.688C49.1875 120.688 50.375 119.5 50.375 117.625L50.375 101.688C50.375 99.875 49.1875 98.625 47.375 98.625L31 98.625C29.1875 98.625 28.0625 99.875 28.0625 101.688L28.0625 117.625C28.0625 119.5 29.1875 120.688 31 120.688ZM65.4375 120.688L81.75 120.688C83.625 120.688 84.8125 119.5 84.8125 117.625L84.8125 101.688C84.8125 99.875 83.625 98.625 81.75 98.625L65.4375 98.625C63.5625 98.625 62.4375 99.875 62.4375 101.688L62.4375 117.625C62.4375 119.5 63.5625 120.688 65.4375 120.688ZM33.5625 180.25L42.25 180.25L42.25 155.188C42.25 153.375 43.125 152.438 45.0625 152.438L67.8125 152.438C69.75 152.438 70.625 153.375 70.625 155.188L70.625 180.25L79.3125 180.25L79.3125 153C79.3125 146.688 76.5625 143.688 70.4375 143.688L42.4375 143.688C36.3125 143.688 33.5625 146.688 33.5625 153Z" fill="white" fill-opacity="0.85"/>
 </g>
</svg>
