<?xml version="1.0" encoding="UTF-8"?>
<!--Generator: Apple Native CoreSVG 341-->
<!DOCTYPE svg
PUBLIC "-//W3C//DTD SVG 1.1//EN"
       "http://www.w3.org/Graphics/SVG/1.1/DTD/svg11.dtd">
<svg version="1.1" xmlns="http://www.w3.org/2000/svg" xmlns:xlink="http://www.w3.org/1999/xlink" viewBox="0 0 162.812 162.938">
 <g>
  <rect height="162.938" opacity="0" width="162.812" x="0" y="0"/>
  <path d="M84.6875 142.688C94.9375 142.688 123.312 105.5 123.312 91.625C123.312 83.875 105.812 68.5625 96.75 68.5625C92.75 68.5625 86.375 74.3125 81.8125 74.3125C77.125 74.3125 66.5625 65.1875 66.5625 61.125C66.5625 58.875 68.6875 57.375 71 57.375C74.8125 57.375 81.25 64.1875 87.25 64.1875C92.5625 64.1875 95.5 60.5 95.5 55.125C95.5 52.5625 94.0625 49.875 91.6875 46.25C100.125 42.0625 117.438 33.125 122.562 21.375C115.125 12.1875 99.125 6.375 81.25 6.375C54.25 6.375 28.4375 21.75 23.9375 37.0625C22.375 46.1875 28.4375 56.1875 40.3125 66.5625L52.3125 77.0625C55.9375 80.25 58.125 81.75 58.125 83.8125C58.125 87.0625 54.5625 89.8125 54.5625 94.25C54.5625 98.3125 56.5 101.688 60.6875 104.812C73.4375 114.375 76.9375 116.062 76.9375 119.125C77.0625 124.438 73.875 128.5 73.875 133.438C73.875 137.812 79.625 142.688 84.6875 142.688ZM81.375 162.812C126.312 162.812 162.812 126.375 162.812 81.4375C162.812 36.5 126.312 0 81.375 0C36.4375 0 0 36.5 0 81.4375C0 126.375 36.4375 162.812 81.375 162.812ZM81.375 153.312C41.6875 153.312 9.5 121.125 9.5 81.4375C9.5 41.6875 41.6875 9.5 81.375 9.5C121.125 9.5 153.312 41.6875 153.312 81.4375C153.312 121.125 121.125 153.312 81.375 153.312Z" fill="white" fill-opacity="0.85"/>
 </g>
</svg>
