<svg width="256" height="256" viewBox="0 0 256 256" fill="none" xmlns="http://www.w3.org/2000/svg">
<path d="M71.1534 252.729C83.3614 256 98.2409 256 128 256C157.759 256 172.639 256 184.847 252.729C217.975 243.852 243.852 217.975 252.729 184.847C256 172.639 256 157.759 256 128C256 98.2409 256 83.3614 252.729 71.1534C243.852 38.0245 217.975 12.148 184.847 3.27112C172.639 0 157.759 0 128 0C98.2409 0 83.3614 0 71.1534 3.27112C38.0245 12.148 12.148 38.0245 3.27112 71.1534C0 83.3614 0 98.2409 0 128C0 157.759 0 172.639 3.27112 184.847C12.148 217.975 38.0245 243.852 71.1534 252.729Z" fill="#007AFF"/>
<path d="M189.806 167.957L166.401 166.76H60.8665C57.5144 166.76 55.0002 169.154 55.0002 172.626C55.0002 176.038 57.5144 178.432 60.8665 178.432H166.401L189.806 177.115C192.739 176.876 194.355 174.721 194.355 172.566C194.355 170.291 192.739 168.136 189.806 167.957ZM151.675 208.003C150.478 209.201 149.939 210.517 149.939 212.194C149.939 215.606 152.274 218 155.686 218C157.242 218 158.918 217.282 160.115 216.084L199.803 176.996C202.377 174.541 202.496 170.71 199.803 168.196L160.115 129.107C158.918 127.91 157.242 127.192 155.686 127.192C152.274 127.192 149.939 129.586 149.939 132.998C149.939 134.674 150.478 135.991 151.675 137.189L169.094 154.189L190.045 172.626L169.094 191.003L151.675 208.003Z" fill="white" fill-opacity="0.8"/>
<path d="M66.9124 78.8247C64.0391 79.0043 62.3631 81.0994 62.3631 83.3741C62.3631 85.5291 64.0391 87.6841 66.9124 87.9235L90.3777 89.2404H195.912C199.264 89.2404 201.778 86.846 201.778 83.434C201.778 80.0219 199.264 77.5677 195.912 77.5677H90.3777L66.9124 78.8247ZM105.104 118.871L87.684 101.811L66.673 83.434L87.684 64.997L105.104 47.9967C106.301 46.7995 106.84 45.4825 106.84 43.8065C106.84 40.4543 104.505 38 101.093 38C99.5363 38 97.8602 38.7782 96.663 39.9754L56.9756 79.0642C54.2819 81.5783 54.4017 85.4094 56.9756 87.8038L96.663 126.893C97.8602 128.09 99.5363 128.808 101.093 128.808C104.505 128.808 106.84 126.414 106.84 123.002C106.84 121.326 106.301 120.009 105.104 118.871Z" fill="white" fill-opacity="0.8"/>
</svg>
