<svg width="256" height="256" viewBox="0 0 256 256" fill="none" xmlns="http://www.w3.org/2000/svg">
<path d="M71.1534 252.729C83.3614 256 98.2409 256 128 256C157.759 256 172.639 256 184.847 252.729C217.975 243.852 243.852 217.975 252.729 184.847C256 172.639 256 157.759 256 128C256 98.2409 256 83.3614 252.729 71.1534C243.852 38.0245 217.975 12.148 184.847 3.27112C172.639 0 157.759 0 128 0C98.2409 0 83.3614 0 71.1534 3.27112C38.0245 12.148 12.148 38.0245 3.27112 71.1534C0 83.3614 0 98.2409 0 128C0 157.759 0 172.639 3.27112 184.847C12.148 217.975 38.0245 243.852 71.1534 252.729Z" fill="#007AFF"/>
<path d="M104.993 79.0591C102.534 79.0591 100.77 77.295 100.77 74.8894C100.77 73.6599 101.251 72.6976 102.16 71.7888L125.04 49.5503C126.216 48.3742 127.285 48 128.461 48C129.637 48 130.706 48.3742 131.882 49.5503L154.762 71.7888C155.618 72.6976 156.152 73.6599 156.152 74.8894C156.152 77.295 154.281 79.0591 151.822 79.0591C150.7 79.0591 149.47 78.578 148.615 77.6158L137.014 65.4273L128.461 56.3929L119.908 65.4273L108.254 77.6158C107.399 78.578 106.116 79.0591 104.993 79.0591ZM128.461 147.485C125.949 147.485 123.757 145.401 123.757 142.888V71.1473L124.452 54.0942C124.559 51.9024 126.269 50.0849 128.461 50.0849C130.653 50.0849 132.364 51.9024 132.47 54.0942L133.165 71.1473V142.888C133.165 145.401 130.974 147.485 128.461 147.485ZM96.4932 200.89H160.429C178.765 200.89 188.922 190.68 188.922 172.397V119.634C188.922 101.351 178.765 91.1407 160.429 91.1407H96.4932C78.157 91.1407 68 101.351 68 119.634V172.397C68 190.68 78.157 200.89 96.4932 200.89Z" fill="white" fill-opacity="0.8"/>
</svg>
