<svg width="256" height="256" viewBox="0 0 256 256" fill="none" xmlns="http://www.w3.org/2000/svg">
<path d="M71.1534 252.729C83.3614 256 98.2409 256 128 256C157.759 256 172.639 256 184.847 252.729C217.975 243.852 243.852 217.975 252.729 184.847C256 172.639 256 157.759 256 128C256 98.2409 256 83.3614 252.729 71.1534C243.852 38.0245 217.975 12.148 184.847 3.27112C172.639 0 157.759 0 128 0C98.2409 0 83.3614 0 71.1534 3.27112C38.0245 12.148 12.148 38.0245 3.27112 71.1534C0 83.3614 0 98.2409 0 128C0 157.759 0 172.639 3.27112 184.847C12.148 217.975 38.0245 243.852 71.1534 252.729Z" fill="#007AFF"/>
<path d="M107.915 208C111.28 208 113.785 206.497 115.647 203.776L204.273 64.8232C205.705 62.604 206.277 60.8859 206.277 59.1677C206.277 54.8009 203.414 51.9373 199.047 51.9373C196.04 51.9373 194.251 53.0111 192.461 55.9463L107.557 190.103L64.1745 134.98C62.2416 132.331 60.3803 131.186 57.4452 131.186C53.0783 131.186 50 134.192 50 138.488C50 140.349 50.7159 142.282 52.2908 144.215L99.8971 203.633C102.26 206.64 104.622 208 107.915 208Z" fill="white" fill-opacity="0.8"/>
</svg>
