<svg width="256" height="256" viewBox="0 0 256 256" fill="none" xmlns="http://www.w3.org/2000/svg">
<path d="M71.1534 252.729C83.3614 256 98.2409 256 128 256C157.759 256 172.639 256 184.847 252.729C217.975 243.852 243.852 217.975 252.729 184.847C256 172.639 256 157.759 256 128C256 98.2409 256 83.3614 252.729 71.1534C243.852 38.0245 217.975 12.148 184.847 3.27112C172.639 0 157.759 0 128 0C98.2409 0 83.3614 0 71.1534 3.27112C38.0245 12.148 12.148 38.0245 3.27112 71.1534C0 83.3614 0 98.2409 0 128C0 157.759 0 172.639 3.27112 184.847C12.148 217.975 38.0245 243.852 71.1534 252.729Z" fill="#007AFF"/>
<path d="M195.479 160.72C195.479 164.12 193.491 166.317 188.731 169.09L135.217 200.11C132.34 201.784 130.091 202.621 127.58 202.621C125.121 202.621 122.872 201.784 119.995 200.11L66.4812 169.09C61.7209 166.317 59.7332 164.12 59.7332 160.72C59.7332 158.687 60.4663 157.078 62.1143 155.496L124.493 191.636C125.54 192.211 126.638 192.577 127.58 192.577C128.574 192.577 129.672 192.211 130.718 191.636L193.097 155.496C194.745 157.078 195.479 158.687 195.479 160.72Z" fill="white" fill-opacity="0.8"/>
<path d="M195.479 129.177C195.479 132.525 193.491 134.722 188.731 137.547L135.217 168.567C132.34 170.241 130.091 171.078 127.58 171.078C125.121 171.078 122.872 170.241 119.995 168.567L66.4812 137.547C61.7209 134.722 59.7332 132.525 59.7332 129.177C59.7332 127.144 60.4663 125.535 62.1143 123.953L124.493 160.092C125.54 160.668 126.638 161.034 127.58 161.034C128.574 161.034 129.672 160.668 130.718 160.092L193.097 123.953C194.745 125.535 195.479 127.144 195.479 129.177Z" fill="white" fill-opacity="0.8"/>
<path d="M66.4812 104.696L119.995 135.716C122.872 137.39 125.121 138.227 127.58 138.227C130.091 138.227 132.34 137.39 135.217 135.716L188.731 104.696C193.491 101.923 195.479 99.7263 195.479 96.3261C195.479 92.9782 193.491 90.7812 188.731 87.9564L135.217 56.9887C132.34 55.2624 130.091 54.4778 127.58 54.4778C125.121 54.4778 122.872 55.2624 119.995 56.9887L66.4812 87.9564C61.7209 90.7812 59.7332 92.9782 59.7332 96.3261C59.7332 99.7263 61.7209 101.923 66.4812 104.696Z" fill="white" fill-opacity="0.8"/>
</svg>
