<?xml version="1.0" encoding="UTF-8"?>
<!--Generator: Apple Native CoreSVG 341-->
<!DOCTYPE svg
PUBLIC "-//W3C//DTD SVG 1.1//EN"
       "http://www.w3.org/Graphics/SVG/1.1/DTD/svg11.dtd">
<svg version="1.1" xmlns="http://www.w3.org/2000/svg" xmlns:xlink="http://www.w3.org/1999/xlink" viewBox="0 0 188.562 167.812">
 <g>
  <rect height="167.812" opacity="0" width="188.562" x="0" y="0"/>
  <path d="M72.375 156.625L72.375 108.312C72.375 104.812 74.6875 102.562 78.1875 102.562L110.438 102.562C113.938 102.562 116.188 104.812 116.188 108.312L116.188 156.625ZM23.875 150.812C23.875 161.438 30.25 167.688 41 167.688L147.562 167.688C158.312 167.688 164.688 161.438 164.688 150.812L164.688 83.5625L99.1875 28.625C96 25.875 92.375 26 89.3125 28.625L23.875 83.4375ZM5.9375 83.3125C7.8125 83.3125 9.375 82.3125 10.75 81.125L91.25 13.5625C92.1875 12.75 93.25 12.375 94.25 12.375C95.3125 12.375 96.375 12.75 97.3125 13.5625L177.812 81.125C179.188 82.3125 180.688 83.3125 182.625 83.3125C186.312 83.3125 188.562 80.625 188.562 77.875C188.562 76.1875 187.875 74.5625 186.312 73.25L103.312 3.625C100.438 1.1875 97.375 0 94.25 0C91.1875 0 88.125 1.1875 85.25 3.625L2.25 73.25C0.6875 74.5625 0 76.1875 0 77.875C0 80.625 2.1875 83.3125 5.9375 83.3125ZM147.562 44.1875L165.938 59.6875L165.938 24.125C165.938 21 163.875 19 160.75 19L152.812 19C149.688 19 147.562 21 147.562 24.125Z" fill="white" fill-opacity="0.85"/>
 </g>
</svg>
