<svg width="600" height="600" viewBox="0 0 600 600" fill="none" xmlns="http://www.w3.org/2000/svg">
<path d="M300 597.5C464.305 597.5 597.5 464.305 597.5 300C597.5 135.695 464.305 2.5 300 2.5C135.695 2.5 2.5 135.695 2.5 300C2.5 464.305 135.695 597.5 300 597.5Z" fill="black" fill-opacity="0.25"/>
<path d="M300 123.5C252.1 123.5 246 123.7 227.2 124.6C208.4 125.5 195.6 128.4 184.4 132.8C172.8 137.3 162.9 143.3 153.1 153.2C143.3 163 137.3 172.9 132.7 184.5C128.3 195.7 125.3 208.6 124.5 227.3C123.7 246.1 123.4 252.1 123.4 300.1C123.4 348 123.6 354 124.5 372.9C125.4 391.7 128.3 404.5 132.7 415.7C137.2 427.3 143.2 437.2 153.1 447C162.9 456.8 172.8 462.9 184.4 467.4C195.6 471.8 208.5 474.7 227.2 475.6C246 476.5 252 476.7 300 476.7C347.9 476.7 353.9 476.5 372.8 475.6C391.6 474.7 404.4 471.8 415.7 467.4C427.3 462.9 437.1 456.8 446.9 447C456.7 437.2 462.7 427.3 467.3 415.7C471.6 404.5 474.6 391.7 475.5 372.9C476.3 354.1 476.6 348.1 476.6 300.1C476.6 252.2 476.4 246.2 475.5 227.3C474.6 208.5 471.6 195.7 467.3 184.5C462.8 172.9 456.7 163 446.9 153.2C437.1 143.4 427.3 137.4 415.6 132.8C404.3 128.4 391.5 125.5 372.7 124.6C353.9 123.7 347.9 123.5 300 123.5ZM284.2 155.3C288.9 155.3 294.1 155.3 300 155.3C347.1 155.3 352.7 155.5 371.3 156.3C388.5 157.1 397.8 160 404.1 162.4C412.3 165.6 418.2 169.4 424.4 175.6C430.6 181.8 434.4 187.7 437.6 195.9C440 202.1 442.9 211.5 443.7 228.7C444.5 247.3 444.7 252.9 444.7 300C444.7 347.1 444.5 352.7 443.7 371.3C442.9 388.5 440 397.8 437.6 404.1C434.4 412.3 430.6 418.2 424.4 424.4C418.2 430.6 412.4 434.4 404.1 437.6C397.9 440 388.5 442.9 371.3 443.7C352.7 444.5 347.1 444.7 300 444.7C252.9 444.7 247.3 444.5 228.7 443.7C211.5 442.9 202.2 440 195.9 437.6C187.7 434.4 181.8 430.6 175.6 424.4C169.4 418.2 165.6 412.3 162.4 404.1C160 397.9 157.1 388.5 156.3 371.3C155.5 352.7 155.3 347.1 155.3 300C155.3 252.9 155.5 247.3 156.3 228.7C157.1 211.5 160 202.2 162.4 195.9C165.6 187.7 169.4 181.8 175.6 175.6C181.8 169.4 187.7 165.6 195.9 162.4C202.1 160 211.5 157.1 228.7 156.3C245 155.5 251.3 155.3 284.2 155.3ZM394.2 184.6C382.5 184.6 373 194.1 373 205.8C373 217.5 382.5 227 394.2 227C405.9 227 415.4 217.5 415.4 205.8C415.4 194.1 405.9 184.6 394.2 184.6ZM300 209.4C249.9 209.4 209.4 250 209.4 300C209.4 350.1 250 390.6 300 390.6C350.1 390.6 390.6 350 390.6 300C390.6 249.9 350.1 209.4 300 209.4ZM300 241.2C332.5 241.2 358.8 267.5 358.8 300C358.8 332.5 332.5 358.8 300 358.8C267.5 358.8 241.2 332.5 241.2 300C241.2 267.5 267.5 241.2 300 241.2Z" fill="white"/>
</svg>
