<?xml version="1.0" encoding="UTF-8"?>
<svg id="Layer_1" xmlns="http://www.w3.org/2000/svg" version="1.1" viewBox="0 0 41.1 40.7">
  <!-- Generator: Adobe Illustrator 29.7.1, SVG Export Plug-In . SVG Version: 2.1.1 Build 8)  -->
  <defs>
    <style>
      .st0 {
        fill-opacity: 0;
      }

      .st0, .st1 {
        fill: #fff;
      }

      .st1 {
        fill-opacity: .9;
      }
    </style>
  </defs>
  <rect class="st0" width="41.1" height="40.7"/>
  <path class="st1" d="M20.3,40.7c11.2,0,20.4-9.1,20.4-20.3S31.6,0,20.3,0,0,9.1,0,20.4s9.1,20.3,20.3,20.3ZM20.3,37.8c-9.6,0-17.4-7.8-17.4-17.4S10.7,2.9,20.3,2.9s17.4,7.8,17.4,17.4-7.8,17.4-17.4,17.4Z"/>
  <path class="st1" d="M9.5,22.4h10.8c.7,0,1.2-.5,1.2-1.2V7.2c0-.7-.5-1.2-1.2-1.2s-1.2.5-1.2,1.2v12.7h-9.6c-.7,0-1.2.5-1.2,1.2s.5,1.2,1.2,1.2Z"/>
</svg>