<?xml version="1.0" encoding="UTF-8"?>
<!--Generator: Apple Native CoreSVG 341-->
<!DOCTYPE svg
PUBLIC "-//W3C//DTD SVG 1.1//EN"
       "http://www.w3.org/Graphics/SVG/1.1/DTD/svg11.dtd">
<svg version="1.1" xmlns="http://www.w3.org/2000/svg" xmlns:xlink="http://www.w3.org/1999/xlink" viewBox="0 0 132 165.562">
 <g>
  <rect height="165.562" opacity="0" width="132" x="0" y="0"/>
  <path d="M66 165.562C67.4375 165.562 69.5 165 71.375 163.875C116.812 137.938 132 127.688 132 99.375L132 37.875C132 29.3125 128.625 26.5625 121.438 23.5625C110.688 19.25 83.3125 9.1875 72.5625 5.5C70.4375 4.75 68.1875 4.25 66 4.25C63.8125 4.25 61.625 4.875 59.5 5.5C48.75 8.875 21.3125 19.3125 10.5625 23.5625C3.375 26.4375 0 29.3125 0 37.875L0 99.375C0 127.688 15.375 137.688 60.625 163.875C62.5625 165 64.625 165.562 66 165.562ZM66 153.25C64.6875 153.25 63.25 152.625 61.1875 151.312C23.8125 128.312 10.9375 121.625 10.9375 97L10.9375 40C10.9375 36.4375 11.625 35.0625 14.375 34C25.625 29.5 51.125 20.625 62.375 16.1875C63.8125 15.625 65.0625 15.3125 66 15.3125C66.9375 15.3125 68.1875 15.625 69.625 16.1875C80.9375 20.625 106.188 29.9375 117.688 34C120.375 35 121.062 36.4375 121.062 40L121.062 97C121.062 121.625 108.125 128.188 70.8125 151.312C68.75 152.625 67.3125 153.25 66 153.25Z" fill="white" fill-opacity="0.85"/>
  <path d="M36.8125 112.938C36.8125 119.125 39.5625 121.938 45.25 121.938L86.875 121.938C92.5625 121.938 95.25 119.125 95.25 112.938L95.25 80.4375C95.25 74.5625 92.8125 71.75 87.75 71.5L87.75 61.4375C87.75 46.9375 79 37.3125 66.0625 37.3125C53.125 37.3125 44.375 46.9375 44.375 61.4375L44.375 71.5C39.3125 71.75 36.8125 74.5625 36.8125 80.4375ZM51.8125 71.4375L51.8125 60.75C51.8125 51 57.5625 44.5625 66.0625 44.5625C74.5625 44.5625 80.25 51 80.25 60.75L80.25 71.4375Z" fill="white" fill-opacity="0.85"/>
 </g>
</svg>
