<?xml version="1.0" encoding="UTF-8"?>
<svg id="Layer_1" xmlns="http://www.w3.org/2000/svg" version="1.1" viewBox="0 0 32 31.6">
  <!-- Generator: Adobe Illustrator 30.3.0, SVG Export Plug-In . SVG Version: 2.1.3 Build 182)  -->
  <defs>
    <style>
      .st0 {
        fill: #fff;
        fill-opacity: .9;
      }
    </style>
  </defs>
  <path class="st0" d="M31.6,15.8c0,8.7-7.1,15.8-15.8,15.8S0,24.5,0,15.8,7.1,0,15.8,0s15.8,7.1,15.8,15.8ZM12.9,9.4c-1,0-1.6.6-1.6,1.4s.6,1.4,1.6,1.4h2.6l2-.3-2.2,2-5.4,5.4c-.3.3-.5.8-.5,1.2,0,1,.7,1.6,1.6,1.6s.9-.2,1.2-.5l5.4-5.4,1.9-2.2-.3,2.2v2.4c0,1,.5,1.6,1.4,1.6s1.4-.6,1.4-1.6v-7.3c0-1.2-.7-1.8-1.9-1.8h-7.4Z"/>
</svg>