<?xml version="1.0" encoding="utf-8"?>
<!-- Generator: Adobe Illustrator 30.2.1, SVG Export Plug-In . SVG Version: 9.03 Build 0)  -->
<svg version="1.1" id="Layer_1" xmlns="http://www.w3.org/2000/svg" xmlns:xlink="http://www.w3.org/1999/xlink" x="0px" y="0px"
	 viewBox="0 0 651.25 651.75" style="enable-background:new 0 0 651.25 651.75;" xml:space="preserve">
<g>
	<rect style="fill:#D3D4D6;fill-opacity:0;" width="651.25" height="651.75"/>
	<path style="fill:#D3D4D6;fill-opacity:0.85;" d="M325.5,651.25c179.75,0,325.75-145.75,325.75-325.5S505.25,0,325.5,0
		S0,146,0,325.75S145.75,651.25,325.5,651.25z M325.5,604.75c-154.25,0-279-124.75-279-279s124.75-279,279-279s279,124.75,279,279
		S479.75,604.75,325.5,604.75z M545.25,536.75l-0.75-3c-17.25-46.5-101.75-99.5-219-99.5c-116.75,0-201.25,52.75-219,99l-0.75,3.5
		c57.75,57.75,152,92.25,220,92.25S486.5,595.25,545.25,536.75z M325.5,379.25c62,0.5,110.25-52.5,110.25-121.5
		c0-65-48.75-119-110.25-119s-110.5,54-110.25,119C215.5,326.75,263.5,378.75,325.5,379.25z"/>
</g>
</svg>
