<?xml version="1.0" encoding="UTF-8"?>
<!--Generator: Apple Native CoreSVG 341-->
<!DOCTYPE svg
PUBLIC "-//W3C//DTD SVG 1.1//EN"
       "http://www.w3.org/Graphics/SVG/1.1/DTD/svg11.dtd">
<svg version="1.1" xmlns="http://www.w3.org/2000/svg" xmlns:xlink="http://www.w3.org/1999/xlink" viewBox="0 0 162.812 162.938">
 <g>
  <rect height="162.938" opacity="0" width="162.812" x="0" y="0"/>
  <path d="M81.375 162.812C126.312 162.812 162.812 126.375 162.812 81.4375C162.812 36.5 126.312 0 81.375 0C36.4375 0 0 36.5 0 81.4375C0 126.375 36.4375 162.812 81.375 162.812ZM81.375 151.188C42.8125 151.188 11.625 120 11.625 81.4375C11.625 42.875 42.8125 11.6875 81.375 11.6875C119.938 11.6875 151.125 42.875 151.125 81.4375C151.125 120 119.938 151.188 81.375 151.188ZM136.312 134.188L136.125 133.438C131.812 121.812 110.688 108.562 81.375 108.562C52.1875 108.562 31.0625 121.75 26.625 133.312L26.4375 134.188C40.875 148.625 64.4375 157.25 81.4375 157.25C98.4375 157.25 121.625 148.812 136.312 134.188ZM81.375 94.8125C96.875 94.9375 108.938 81.6875 108.938 64.4375C108.938 48.1875 96.75 34.6875 81.375 34.6875C66 34.6875 53.75 48.1875 53.8125 64.4375C53.875 81.6875 65.875 94.6875 81.375 94.8125Z" fill="white" fill-opacity="0.85"/>
 </g>
</svg>
