<svg width="814" height="34" viewBox="0 0 814 34" fill="none" xmlns="http://www.w3.org/2000/svg">
<path d="M814 5.58249C803.735 11.2545 789.585 11.5915 776.958 13.3324C715.789 21.7281 653.177 25.4908 590.407 27.5125C548.875 28.8603 507.028 27.6108 465.339 27.1053C423.939 26.6139 384.613 20.0153 344.997 14.3854C312.654 9.78036 279.707 9.02222 246.498 9.654C197.064 10.5806 147.762 12.4619 99.7196 18.9904C71.5506 22.8232 44.0905 28.1723 16.4727 33.0862C9.85708 34.2656 4.73773 35.0377 1.9287 30.5872C-1.66791 24.859 -0.696572 23.5112 8.80686 22.1914C48.8683 16.6738 88.5098 9.83652 129.122 6.00369C190.895 0.191261 253.612 -2.26569 316.146 2.578C343.974 4.74011 371.198 9.19069 398.658 12.6866C440.504 18.0076 483.112 20.0995 525.878 19.2852C569.798 18.4428 613.666 16.2667 657.508 14.4837C678.878 13.6132 700.247 12.6725 721.433 11.0439C736.66 9.87864 751.493 7.32342 766.64 5.80713C777.246 4.74012 788.089 4.38913 798.826 3.70118C799.955 3.63098 801.477 3.65906 802.134 3.29403C809.064 -0.566883 811.322 2.36741 813.947 5.58249H814Z" fill="#FF9500"/>
</svg>
