<?xml version="1.0" encoding="UTF-8"?>
<svg id="Layer_1" xmlns="http://www.w3.org/2000/svg" version="1.1" viewBox="0 0 210 210">
  <!-- Generator: Adobe Illustrator 30.3.0, SVG Export Plug-In . SVG Version: 2.1.3 Build 182)  -->
  <defs>
    <style>
      .st0 {
        fill-opacity: .9;
      }
    </style>
  </defs>
  <path class="st0" d="M25.4,71.6c0,4.2,3.4,7.6,7.7,7.6s7.6-3.4,7.6-7.6v-15.3c0-9.7,5.6-15.4,15.4-15.4h15.7c4.2,0,7.6-3.4,7.6-7.6s-3.4-7.7-7.6-7.7h-15.7c-19,0-30.7,11.8-30.7,30.7v15.3ZM184.6,71.6v-15.3c0-18.9-11.7-30.7-30.7-30.7h-15.6c-4.2,0-7.6,3.4-7.6,7.7s3.4,7.6,7.6,7.6h15.6c9.8,0,15.4,5.7,15.4,15.4v15.3c0,4.2,3.4,7.6,7.6,7.6s7.7-3.4,7.7-7.6ZM25.4,138.6v15.3c0,18.9,11.7,30.7,30.7,30.7h15.7c4.2,0,7.6-3.4,7.6-7.7s-3.4-7.6-7.6-7.6h-15.7c-9.8,0-15.4-5.7-15.4-15.4v-15.3c0-4.2-3.5-7.6-7.6-7.6s-7.7,3.4-7.7,7.6ZM184.6,138.6c0-4.2-3.4-7.6-7.7-7.6s-7.6,3.4-7.6,7.6v15.3c0,9.7-5.7,15.4-15.4,15.4h-15.6c-4.2,0-7.6,3.4-7.6,7.6s3.4,7.7,7.6,7.7h15.6c19,0,30.7-11.8,30.7-30.7v-15.3Z"/>
  <path class="st0" d="M63.4,74.9c0,3,2.5,5.5,5.5,5.5h72.3c3,0,5.4-2.5,5.4-5.5s-2.4-5.4-5.4-5.4h-72.3c-3,0-5.5,2.4-5.5,5.4Z"/>
  <path class="st0" d="M63.4,104.8c0,3,2.5,5.5,5.5,5.5h72.3c3,0,5.4-2.4,5.4-5.5s-2.4-5.4-5.4-5.4h-72.3c-3,0-5.5,2.4-5.5,5.4Z"/>
  <path class="st0" d="M63.4,134.8c0,3,2.5,5.4,5.5,5.4h47.6c3,0,5.5-2.4,5.5-5.4s-2.5-5.5-5.5-5.5h-47.6c-3,0-5.5,2.5-5.5,5.5Z"/>
</svg>