<?xml version="1.0" encoding="UTF-8"?>
<svg id="Layer_1" xmlns="http://www.w3.org/2000/svg" version="1.1" viewBox="0 0 210 210">
  <!-- Generator: Adobe Illustrator 30.3.0, SVG Export Plug-In . SVG Version: 2.1.3 Build 182)  -->
  <defs>
    <style>
      .st0 {
        fill-opacity: .9;
      }
    </style>
  </defs>
  <path class="st0" d="M56.1,180.2h97.8c17.2,0,26.4-9.1,26.4-26.1V55.9c0-17.1-9.1-26.2-26.4-26.2H56.1c-17.2,0-26.3,9.1-26.3,26.2v98.2c0,17.1,9.1,26.1,26.3,26.1ZM57.4,164.4c-7.7,0-11.8-3.9-11.8-11.9V57.5c0-7.9,4.1-11.9,11.8-11.9h95.3c7.6,0,11.8,4,11.8,11.9v95.1c0,8-4.2,11.9-11.8,11.9H57.4Z"/>
  <path class="st0" d="M61.5,67.4v19c0,5.1,3,8.1,8.1,8.1h19.1c5.1,0,8.1-3,8.1-8.1v-19c0-5.2-3-8.2-8.1-8.2h-19.1c-5.1,0-8.1,3-8.1,8.2Z"/>
  <path class="st0" d="M66.1,121.4h76.8c2.8,0,4.8-2.2,4.8-4.9s-2.1-4.7-4.8-4.7h-76.8c-2.8,0-4.9,2.1-4.9,4.7s2.1,4.9,4.9,4.9Z"/>
  <path class="st0" d="M66.1,147.3h56.7c2.8,0,4.8-2.1,4.8-4.7s-2.1-4.9-4.8-4.9h-56.7c-2.8,0-4.9,2.1-4.9,4.9s2.1,4.7,4.9,4.7Z"/>
</svg>