<?xml version="1.0" encoding="UTF-8"?>
<svg id="Layer_1" xmlns="http://www.w3.org/2000/svg" version="1.1" viewBox="0 0 210 210">
  <!-- Generator: Adobe Illustrator 30.3.0, SVG Export Plug-In . SVG Version: 2.1.3 Build 182)  -->
  <defs>
    <style>
      .st0 {
        fill-opacity: .9;
      }
    </style>
  </defs>
  <path class="st0" d="M197.6,88.8h-38.2c-5.6,0-7.1,4.4-4,8.7l18.8,26c2.4,3.4,6.2,3.4,8.6,0l18.8-25.9c3.2-4.3,1.7-8.8-4.1-8.8ZM105,188.2c4.4,0,8.1-3.7,8.1-8.1s-3.7-8.1-8.1-8.1c-37,0-66.9-29.9-66.9-66.9s29.9-67,66.9-67,67,30,67,67,3.7,8.1,8.2,8.1,8-3.6,8.1-8.1c0-46.1-37.3-83.3-83.2-83.3S21.8,59,21.8,105s37.3,83.2,83.2,83.2ZM131.8,182.7c4.1,0,7.5-3.4,7.5-7.6s-3.4-7.6-7.5-7.6-7.6,3.4-7.6,7.6,3.4,7.6,7.6,7.6ZM154.2,170.2c4.2,0,7.6-3.4,7.6-7.6s-3.4-7.6-7.6-7.6-7.6,3.4-7.6,7.6,3.4,7.6,7.6,7.6ZM170.8,151c4.2,0,7.6-3.4,7.6-7.5s-3.4-7.6-7.6-7.6-7.6,3.4-7.6,7.6,3.4,7.5,7.6,7.5Z"/>
  <path class="st0" d="M64.1,115.2h40.8c3.5,0,6.3-2.7,6.3-6.3v-53.1c0-3.5-2.7-6.2-6.3-6.2s-6.2,2.7-6.2,6.2v46.8h-34.6c-3.5,0-6.3,2.8-6.3,6.2s2.7,6.3,6.3,6.3Z"/>
</svg>