<?xml version="1.0" encoding="UTF-8"?>
<svg id="Layer_1" xmlns="http://www.w3.org/2000/svg" version="1.1" viewBox="0 0 290 90">
  <!-- Generator: Adobe Illustrator 30.2.1, SVG Export Plug-In . SVG Version: 2.1.1 Build 1)  -->
  <defs>
    <style>
      .st0 {
        fill: #303030;
      }
    </style>
  </defs>
  <path class="st0" d="M34.5,16.9h18.9c2.6,0,4.6,2.1,4.6,4.6h0c0,2.6-2.1,4.6-4.6,4.6h-18.9c-2.6,0-4.6-2.1-4.6-4.6h0c0-2.6,2.1-4.6,4.6-4.6Z"/>
  <path class="st0" d="M34.5,40.4h18.9c2.6,0,4.6,2.1,4.6,4.6h0c0,2.6-2.1,4.6-4.6,4.6h-18.9c-2.6,0-4.6-2.1-4.6-4.6h0c0-2.6,2.1-4.6,4.6-4.6Z"/>
  <path class="st0" d="M34.5,63.9h18.9c2.6,0,4.6,2.1,4.6,4.6h0c0,2.6-2.1,4.6-4.6,4.6h-18.9c-2.6,0-4.6-2.1-4.6-4.6h0c0-2.6,2.1-4.6,4.6-4.6Z"/>
  <path class="st0" d="M49.6,28.6h18.9c2.6,0,4.6,2.1,4.6,4.6h0c0,2.6-2.1,4.6-4.6,4.6h-18.9c-2.6,0-4.6-2.1-4.6-4.6h0c0-2.6,2.1-4.6,4.6-4.6Z"/>
  <path class="st0" d="M26.1,21.5v47.1c0,2.5-2.1,4.6-4.6,4.6h0c-2.5,0-4.6-2.1-4.6-4.6V21.5c0-2.5,2.1-4.6,4.6-4.6h0c2.5,0,4.6,2.1,4.6,4.6Z"/>
  <path class="st0" d="M29.9,28.6h8c2.6,0,4.6,2.1,4.6,4.6s-2.1,4.6-4.6,4.6h-8v-9.2Z"/>
  <path class="st0" d="M29.9,52.1h8c2.6,0,4.6,2.1,4.6,4.6s-2.1,4.6-4.6,4.6h-8v-9.2Z"/>
  <path class="st0" d="M49.6,52.1h18.9c2.6,0,4.6,2.1,4.6,4.6h0c0,2.6-2.1,4.6-4.6,4.6h-18.9c-2.6,0-4.6-2.1-4.6-4.6h0c0-2.6,2.1-4.6,4.6-4.6Z"/>
  <path class="st0" d="M261.4,45.6c0-7.7,6.6-10.6,14-10.6s13.2,3.4,13.2,10h-8.7c-.2-1.8-1.7-3.5-4.7-3.5s-4.5,1.4-4.5,3.4c0,3.1,5.3,3.5,8.8,4.1,6.2,1,10.2,3.6,10.2,9.5s-5.4,11.2-14.9,11.2-14.2-4.2-14.2-10.1h9.7c.2,2.1,1.9,3.6,5,3.6s4.8-1.5,4.8-3.4c0-2.9-4.1-3.2-8.2-4-5.8-1.1-10.6-3.5-10.6-10Z"/>
  <path class="st0" d="M236.3,57.8v11.2h-10V24h10v24.8h.5l9.6-13.2h11.2l-11.6,14.3,12.4,19h-11.6l-8.5-13.5-2,2.3Z"/>
  <path class="st0" d="M189.2,53.8v-3.3c0-9.4,6-15.5,15.4-15.5s14.3,5.3,14.4,12.6h-9c-.2-2.4-1.8-4.9-5.1-4.9s-5.8,3.1-5.8,7.8v3.2c0,5.2,2.1,8.2,5.8,8.2s4.9-1.8,5.2-4.7h9c-.1,7.3-5.2,12.4-14.5,12.4s-15.4-6-15.4-15.8Z"/>
  <path class="st0" d="M170.3,26c0-3,2.4-5,5.9-5s5.9,2,5.9,5-2.3,5-5.9,5-5.9-2-5.9-5ZM171.3,68.9v-33.4h10v33.4h-10Z"/>
  <path class="st0" d="M143.3,68.9v-33.4h10v5.3h.5c.6-2.3,3.1-5.8,7.9-5.8s2.4,0,3,.3v8.5c-.7-.2-2.2-.4-3.7-.4-5.1,0-7.4,2.9-7.4,7.4v18.1h-10.2Z"/>
  <path class="st0" d="M102,68.9V26.3h18.9c7.8,0,13.1,3.9,13.1,10.5s-3.5,8.5-7.6,9.3v.5c4.8.3,9.6,3.6,9.6,10.3s-6.5,12.1-14.8,12.1h-19.2ZM112.2,33.6v10.1h5c4.8,0,6.8-2,6.8-5.1s-2.1-5-5.7-5h-6.1ZM112.2,50.2v11.4h5.6c5.6,0,7.9-2.2,7.9-5.7s-2.3-5.8-6.8-5.8h-6.6Z"/>
</svg>