<?xml version="1.0" encoding="UTF-8"?>
<!--Generator: Apple Native CoreSVG 341-->
<!DOCTYPE svg
PUBLIC "-//W3C//DTD SVG 1.1//EN"
       "http://www.w3.org/Graphics/SVG/1.1/DTD/svg11.dtd">
<svg version="1.1" xmlns="http://www.w3.org/2000/svg" xmlns:xlink="http://www.w3.org/1999/xlink" viewBox="0 0 176.5 169.938">
 <g>
  <rect height="169.938" opacity="0" width="176.5" x="0" y="0"/>
  <path d="M12.0625 53.375L164.438 53.375C168.25 53.375 170.375 50.6875 170.375 47.875C170.375 45.8125 169.25 44 166.75 42.5625L97.6875 2.6875C94.625 0.9375 91.375 0 88.25 0C85.0625 0 81.75 0.9375 78.8125 2.6875L9.75 42.5625C7.1875 44 6.125 45.8125 6.125 47.875C6.125 50.6875 8.25 53.375 12.0625 53.375ZM17.5625 68.75L38.875 68.75C41.4375 68.75 42.9375 67.3125 42.9375 64.75L42.9375 63.5625C42.9375 61.0625 41.4375 59.5625 38.875 59.5625L17.5625 59.5625C14.9375 59.5625 13.4375 61.0625 13.4375 63.5625L13.4375 64.75C13.4375 67.3125 14.9375 68.75 17.5625 68.75ZM22.9375 145.625L33.375 145.625L33.375 66.5L22.9375 66.5ZM17.5625 152.562L38.875 152.562C41.4375 152.562 42.9375 151.062 42.9375 148.5L42.9375 147.375C42.9375 144.875 41.4375 143.438 38.875 143.438L17.5625 143.438C14.9375 143.438 13.4375 144.875 13.4375 147.375L13.4375 148.5C13.4375 151.062 14.9375 152.562 17.5625 152.562ZM57.5625 68.75L78.875 68.75C81.5 68.75 83 67.3125 83 64.75L83 63.5625C83 61.0625 81.5 59.5625 78.875 59.5625L57.5625 59.5625C55 59.5625 53.5 61.0625 53.5 63.5625L53.5 64.75C53.5 67.3125 55 68.75 57.5625 68.75ZM63 145.625L73.4375 145.625L73.4375 66.5L63 66.5ZM57.5625 152.562L78.875 152.562C81.5 152.562 83 151.062 83 148.5L83 147.375C83 144.875 81.5 143.438 78.875 143.438L57.5625 143.438C55 143.438 53.5 144.875 53.5 147.375L53.5 148.5C53.5 151.062 55 152.562 57.5625 152.562ZM97.625 68.75L118.938 68.75C121.5 68.75 123 67.3125 123 64.75L123 63.5625C123 61.0625 121.5 59.5625 118.938 59.5625L97.625 59.5625C95.0625 59.5625 93.5625 61.0625 93.5625 63.5625L93.5625 64.75C93.5625 67.3125 95.0625 68.75 97.625 68.75ZM103.125 145.625L113.562 145.625L113.562 66.5L103.125 66.5ZM97.625 152.562L118.938 152.562C121.5 152.562 123 151.062 123 148.5L123 147.375C123 144.875 121.5 143.438 118.938 143.438L97.625 143.438C95.0625 143.438 93.5625 144.875 93.5625 147.375L93.5625 148.5C93.5625 151.062 95.0625 152.562 97.625 152.562ZM137.688 68.75L159 68.75C161.562 68.75 163.062 67.3125 163.062 64.75L163.062 63.5625C163.062 61.0625 161.562 59.5625 159 59.5625L137.688 59.5625C135.125 59.5625 133.625 61.0625 133.625 63.5625L133.625 64.75C133.625 67.3125 135.125 68.75 137.688 68.75ZM143.188 145.625L153.625 145.625L153.625 66.5L143.188 66.5ZM137.688 152.562L159 152.562C161.562 152.562 163.062 151.062 163.062 148.5L163.062 147.375C163.062 144.875 161.562 143.438 159 143.438L137.688 143.438C135.125 143.438 133.625 144.875 133.625 147.375L133.625 148.5C133.625 151.062 135.125 152.562 137.688 152.562ZM5.5625 169.812L170.938 169.812C174 169.812 176.5 167.312 176.5 164.312C176.5 161.25 174 158.75 170.938 158.75L5.5625 158.75C2.5 158.75 0 161.25 0 164.312C0 167.312 2.5 169.812 5.5625 169.812Z" fill="white" fill-opacity="0.85"/>
 </g>
</svg>
