<svg width="256" height="256" viewBox="0 0 256 256" fill="none" xmlns="http://www.w3.org/2000/svg">
<path d="M71.1534 252.729C83.3614 256 98.2409 256 128 256C157.759 256 172.639 256 184.847 252.729C217.975 243.852 243.852 217.975 252.729 184.847C256 172.639 256 157.759 256 128C256 98.2409 256 83.3614 252.729 71.1534C243.852 38.0245 217.975 12.148 184.847 3.27112C172.639 0 157.759 0 128 0C98.2409 0 83.3614 0 71.1534 3.27112C38.0245 12.148 12.148 38.0245 3.27112 71.1534C0 83.3614 0 98.2409 0 128C0 157.759 0 172.639 3.27112 184.847C12.148 217.975 38.0245 243.852 71.1534 252.729Z" fill="#007AFF"/>
<path d="M75 191.192C75 197.138 81.2424 200.11 86.9895 196.295L95.3623 191.143L104.181 196.89C105.717 197.881 107.005 197.93 108.541 196.89L117.112 191.093L125.93 196.89C127.466 197.93 128.754 197.93 130.34 196.89L139.158 191.093L147.729 196.89C149.364 197.98 150.454 197.98 152.089 196.89L160.957 191.093L169.38 196.295C175.077 200.11 181.369 197.138 181.369 191.192V78.8284C181.369 66.1453 174.929 59.7542 162.097 59.7542H94.2723C81.4406 59.7542 75 66.1453 75 78.8284V191.192ZM100.564 95.2272C98.533 95.2272 96.9972 93.6913 96.9972 91.66C96.9972 89.6783 98.533 88.0929 100.564 88.0929H134.006C136.136 88.0929 137.672 89.6783 137.672 91.66C137.672 93.6913 136.136 95.2272 134.006 95.2272H100.564ZM150.157 95.2272C148.126 95.2272 146.59 93.6913 146.59 91.66C146.59 89.6783 148.126 88.0929 150.157 88.0929H155.656C157.737 88.0929 159.273 89.6783 159.273 91.66C159.273 93.6913 157.737 95.2272 155.656 95.2272H150.157ZM100.564 118.612C98.533 118.612 96.9972 117.076 96.9972 115.143C96.9972 113.063 98.533 111.477 100.564 111.477H134.006C136.136 111.477 137.672 113.063 137.672 115.143C137.672 117.076 136.136 118.612 134.006 118.612H100.564ZM150.157 118.612C148.126 118.612 146.59 117.076 146.59 115.143C146.59 113.063 148.126 111.477 150.157 111.477H155.656C157.737 111.477 159.273 113.063 159.273 115.143C159.273 117.076 157.737 118.612 155.656 118.612H150.157ZM100.564 141.649C98.533 141.649 96.9972 140.113 96.9972 138.132C96.9972 136.1 98.533 134.515 100.564 134.515H134.155C136.285 134.515 137.821 136.1 137.821 138.132C137.821 140.113 136.285 141.649 134.155 141.649H100.564ZM150.008 141.649C147.977 141.649 146.441 140.113 146.441 138.132C146.441 136.1 147.977 134.515 150.008 134.515H155.656C157.737 134.515 159.273 136.1 159.273 138.132C159.273 140.113 157.737 141.649 155.656 141.649H150.008ZM100.564 165.034C98.533 165.034 96.9972 163.498 96.9972 161.565C96.9972 159.534 98.533 157.949 100.564 157.949H134.155C136.285 157.949 137.821 159.534 137.821 161.565C137.821 163.498 136.285 165.034 134.155 165.034H100.564ZM150.008 165.034C147.977 165.034 146.441 163.498 146.441 161.565C146.441 159.534 147.977 157.949 150.008 157.949H155.656C157.737 157.949 159.273 159.534 159.273 161.565C159.273 163.498 157.737 165.034 155.656 165.034H150.008Z" fill="white" fill-opacity="0.8"/>
</svg>
