<svg width="320" height="320" viewBox="0 0 320 320" fill="none" xmlns="http://www.w3.org/2000/svg">
<path d="M47 264.067C47 291.216 60.574 305 87.5116 305H232.406C259.344 305 272.918 291.216 272.918 264.067V55.9325C272.918 28.7845 259.344 15 232.406 15H87.5116C60.574 15 47 28.7845 47 55.9325V264.067ZM65.6248 263.647V56.3534C65.6248 41.6219 73.4115 33.6248 88.5639 33.6248H231.354C246.507 33.6248 254.293 41.6219 254.293 56.3534V263.647C254.293 278.378 246.507 286.375 231.354 286.375H88.5639C73.4115 286.375 65.6248 278.378 65.6248 263.647Z" fill="#00A6A1"/>
<path d="M105.926 82.1336H217.991C222.2 82.1336 225.356 78.8716 225.356 74.7678C225.356 70.7693 222.2 67.6125 217.991 67.6125H105.926C101.612 67.6125 98.4551 70.7693 98.4551 74.7678C98.4551 78.8716 101.612 82.1336 105.926 82.1336ZM105.926 120.962H173.481C177.69 120.962 180.846 117.7 180.846 113.491C180.846 109.492 177.69 106.335 173.481 106.335H105.926C101.612 106.335 98.4551 109.492 98.4551 113.491C98.4551 117.7 101.612 120.962 105.926 120.962ZM108.136 260.911H211.888C223.778 260.911 229.881 254.808 229.881 242.917V163.052C229.881 151.056 223.778 145.058 211.888 145.058H108.136C96.5611 145.058 90.0371 151.056 90.0371 163.052V242.917C90.0371 254.808 96.5611 260.911 108.136 260.911Z" fill="#00A6A1"/>
</svg>
