<?xml version="1.0" encoding="UTF-8"?>
<svg id="Layer_1" xmlns="http://www.w3.org/2000/svg" version="1.1" viewBox="0 0 210 210">
  <!-- Generator: Adobe Illustrator 30.3.0, SVG Export Plug-In . SVG Version: 2.1.3 Build 182)  -->
  <defs>
    <style>
      .st0 {
        fill-opacity: .9;
      }
    </style>
  </defs>
  <path class="st0" d="M50.1,170.8c0,13.7,9.2,22.5,23.3,22.5h63.5c13.9,0,22.9-8.9,22.9-22.6V39c0-13.7-9-22.5-22.9-22.5h-63.5c-14.2,0-23.3,8.9-23.3,22.5v131.9ZM65.9,166.9V42.9c0-6.6,3.7-10.1,10.5-10.1h57.2c6.7,0,10.4,3.6,10.4,10.1v123.8c0,6.5-3.7,10.1-10.4,10.1h-57.2c-6.8,0-10.5-3.6-10.5-10.1Z"/>
  <path class="st0" d="M91.1,132.5h27.9c4.6,0,6.8-2.4,6.8-7.3v-21.8c0-4.1-1.6-6.4-4.9-7.1v-5.2c0-10.2-6.4-17.2-15.9-17.2s-15.9,7.1-15.9,17.2v5.2c-3.3.6-4.9,3-4.9,7.1v21.8c0,4.9,2.2,7.3,6.8,7.3ZM97,96.1v-5.5c0-5.5,3.2-9.1,8-9.1s8,3.7,8,9.1v5.5h-16Z"/>
</svg>