<?xml version="1.0" encoding="UTF-8"?>
<svg id="Layer_1" xmlns="http://www.w3.org/2000/svg" version="1.1" viewBox="0 0 210 210">
  <!-- Generator: Adobe Illustrator 30.3.0, SVG Export Plug-In . SVG Version: 2.1.3 Build 182)  -->
  <defs>
    <style>
      .st0 {
        fill-opacity: .9;
      }
    </style>
  </defs>
  <path class="st0" d="M64.8,70.1c-13.2,5.4-25.1,13.6-35.3,24.4-1.8,1.9-4.4,1.9-6.2.1l-11.1-11.3c-1.5-1.6-1.6-3.8-.3-5.4,8.5-10.5,20.3-19.7,34.1-26.7l18.9,18.9ZM198.2,78c1.3,1.6,1.3,3.8-.3,5.4l-11.1,11.1c-1.8,1.8-4.3,1.9-6.1.1-19.8-21.2-46.1-32.3-75.7-32.3s-2.4,0-3.6.2l-22.8-22.8c8.6-1.8,17.4-2.8,26.3-2.8,37.3,0,73.7,17,93.2,41Z"/>
  <path class="st0" d="M104.4,109.7c-15.6.1-31.1,7.5-41,18.1-1.9,2-4.4,2.2-6.4.3l-12.5-12.3c-1.6-1.6-1.7-3.6-.3-5.2,8.7-10.5,22.4-18.8,38.2-23l22,22ZM165.8,110.8c1.4,1.6,1.2,3.7-.3,5.2l-5.4,5.2-33.7-33.7c16.4,4.1,30.5,12.6,39.4,23.3Z"/>
  <path class="st0" d="M132,144.8c1.4,1.7,1.1,3.9-.4,5.3l-19.8,19c-3.2,3.1-4.9,4-6.8,4s-3.6-.9-6.9-4l-19.7-19c-1.4-1.4-1.9-3.2-.9-4.7,5.6-7.5,16.1-13.4,27.5-13.4s21.4,5.7,27,12.8Z"/>
  <path class="st0" d="M173.6,165.3c2.3,2.4,6.2,2.3,8.5,0,2.3-2.4,2.3-6.1,0-8.4L45.3,20.1c-2.4-2.4-6.2-2.4-8.5,0-2.3,2.3-2.3,6.3,0,8.5l136.9,136.8Z"/>
</svg>