<svg width="320" height="320" viewBox="0 0 320 320" fill="none" xmlns="http://www.w3.org/2000/svg">
<path d="M230.568 73.0352C249.426 73.0353 259 82.5368 259 101.175V269.539C259 288.177 249.426 297.752 230.568 297.752H90.2334C71.3031 297.752 61.8018 288.25 61.8018 269.539V101.175C61.8018 82.4637 71.3031 73.0353 90.2334 73.0352H230.568ZM214.363 122.017C212.629 122.017 210.79 122.332 209.041 123.394C207.375 124.405 206.219 125.836 205.328 127.283L143.941 224.278L114.898 187.375C113.958 186.107 112.796 184.866 111.24 183.972C109.569 183.011 107.803 182.65 106.021 182.65C103.243 182.65 100.589 183.624 98.6104 185.562C96.6242 187.508 95.5958 190.157 95.5957 192.967C95.5958 195.672 96.6521 198.163 98.3877 200.305L98.3867 200.306L134.811 245.767C135.956 247.218 137.31 248.542 139.018 249.484C140.792 250.463 142.676 250.881 144.636 250.881C148.943 250.881 152.25 248.812 154.454 245.591L154.498 245.527L154.539 245.463L222.348 139.146C223.736 136.989 224.624 134.792 224.624 132.277C224.624 129.552 223.709 126.898 221.726 124.914C219.742 122.931 217.088 122.017 214.363 122.017ZM150.279 243.3C150.188 243.42 150.094 243.536 149.999 243.649C150.15 243.469 150.296 243.278 150.438 243.079L150.279 243.3ZM111.169 190.282L144.362 232.458V232.459L111.169 190.283C111.108 190.199 111.045 190.118 110.984 190.038C111.045 190.118 111.108 190.199 111.169 190.282ZM223.917 45.626C232.511 45.6261 237.866 49.9834 238.858 57.7578C236.238 57.3573 233.463 57.1738 230.568 57.1738H90.2334C87.3376 57.1738 84.5623 57.3556 81.9434 57.7529C82.9377 49.9814 88.2926 45.626 96.8848 45.626H223.917ZM208.129 21.7246C215.155 21.7246 219.519 25.5547 219.995 32.1768H100.879C101.347 25.5547 105.647 21.7246 112.673 21.7246H208.129Z" fill="#00C7B2"/>
</svg>
