<svg width="320" height="320" viewBox="0 0 320 320" fill="none" xmlns="http://www.w3.org/2000/svg">
<path d="M106.768 201.774H213.571C217.78 201.774 220.937 198.512 220.937 194.409C220.937 190.305 217.78 187.148 213.571 187.148H106.768C102.454 187.148 99.2968 190.305 99.2968 194.409C99.2968 198.512 102.454 201.774 106.768 201.774ZM106.768 243.023H157.802C162.011 243.023 165.168 239.866 165.168 235.867C165.168 231.763 162.011 228.501 157.802 228.501H106.768C102.454 228.501 99.2968 231.763 99.2968 235.867C99.2968 239.866 102.454 243.023 106.768 243.023ZM129.812 153.055H141.071C142.123 153.055 142.86 153.476 143.702 154.213L151.699 162.105C157.381 167.997 162.747 167.892 168.43 162.105L176.427 154.213C177.269 153.581 177.9 153.055 179.163 153.055H190.211C198.314 153.055 202.102 149.372 202.102 141.27V130.011C202.102 128.959 202.312 128.222 203.154 127.38L211.151 119.383C216.833 113.596 216.833 108.44 211.151 102.652L203.154 94.6553C202.312 93.9187 202.102 93.0769 202.102 92.0247V80.7656C202.102 72.6633 198.419 68.9804 190.211 68.9804H179.163C177.9 68.9804 177.269 68.5595 176.427 67.8229L168.43 59.9311C162.642 54.1437 157.381 54.2489 151.699 59.9311L143.702 67.8229C142.86 68.6647 142.123 68.9804 141.071 68.9804H129.812C121.71 68.9804 117.922 72.5581 117.922 80.7656V92.0247C117.922 93.0769 117.711 93.9187 116.975 94.6553L108.978 102.652C103.19 108.44 103.19 113.596 108.978 119.383L116.975 127.38C117.711 128.222 117.922 128.959 117.922 130.011V141.27C117.922 149.372 121.71 153.055 129.812 153.055ZM154.54 136.745C152.646 136.745 151.067 135.798 149.594 134.009L136.231 118.226C135.389 117.173 134.863 115.806 134.863 114.543C134.863 111.597 136.967 109.176 140.229 109.176C141.913 109.176 143.386 110.018 144.754 111.702L154.329 123.382L175.164 90.4463C176.216 88.6575 177.9 87.5 179.689 87.5C182.425 87.5 184.95 89.4993 184.95 92.4456C184.95 93.8135 184.319 95.1814 183.687 96.2337L159.591 133.904C158.328 136.009 156.539 136.745 154.54 136.745ZM47 264.067C47 291.216 60.574 305 87.5116 305H232.406C259.344 305 272.918 291.216 272.918 264.067V55.9325C272.918 28.7845 259.344 15 232.406 15H87.5116C60.574 15 47 28.7845 47 55.9325V264.067ZM65.6248 263.647V56.3534C65.6248 41.6219 73.4115 33.6248 88.5639 33.6248H231.354C246.507 33.6248 254.293 41.6219 254.293 56.3534V263.647C254.293 278.378 246.507 286.375 231.354 286.375H88.5639C73.4115 286.375 65.6248 278.378 65.6248 263.647Z" fill="#00A6A1"/>
</svg>
