<svg width="320" height="320" viewBox="0 0 320 320" fill="none" xmlns="http://www.w3.org/2000/svg">
<path d="M48 290.719C48 303.191 61.0949 309.426 73.1504 301.424L90.7142 290.616L109.213 302.671C112.435 304.75 115.137 304.854 118.359 302.671L136.338 290.512L154.837 302.671C158.059 304.854 160.761 304.854 164.087 302.671L182.586 290.512L200.566 302.671C203.995 304.958 206.282 304.958 209.711 302.671L228.314 290.512L245.982 301.424C257.933 309.426 271.132 303.191 271.132 290.719V55.012C271.132 28.4066 257.622 15 230.704 15H88.4278C61.5106 15 48 28.4066 48 55.012V290.719ZM66.3952 285.003V56.0513C66.3952 41.0858 74.2936 33.3952 88.8435 33.3952H230.289C244.839 33.3952 252.737 41.0858 252.737 56.0513L252.633 285.003L232.679 272.532C229.561 270.558 226.859 270.35 223.741 272.532L205.138 284.796L187.055 272.532C184.145 270.35 181.339 270.35 178.221 272.532L159.514 284.796L140.807 272.532C137.793 270.454 134.987 270.35 131.973 272.532L113.786 284.796L95.1831 272.532C92.0652 270.35 89.3631 270.558 86.3492 272.532L66.3952 285.003ZM102.978 90.867H171.57C175.831 90.867 178.949 87.7491 178.949 83.7999C178.949 79.6428 175.831 76.4211 171.57 76.4211H102.978C98.8205 76.4211 95.7027 79.6428 95.7027 83.7999C95.7027 87.7491 98.8205 90.867 102.978 90.867ZM204.619 90.867H215.843C220.104 90.867 223.222 87.7491 223.222 83.7999C223.222 79.6428 220.104 76.4211 215.843 76.4211H204.619C200.462 76.4211 197.344 79.6428 197.344 83.7999C197.344 87.7491 200.462 90.867 204.619 90.867ZM102.978 138.778H171.57C175.831 138.778 178.949 135.66 178.949 131.71C178.949 127.553 175.831 124.332 171.57 124.332H102.978C98.8205 124.332 95.7027 127.553 95.7027 131.71C95.7027 135.66 98.8205 138.778 102.978 138.778ZM204.619 138.778H215.843C220.104 138.778 223.222 135.66 223.222 131.71C223.222 127.553 220.104 124.332 215.843 124.332H204.619C200.462 124.332 197.344 127.553 197.344 131.71C197.344 135.66 200.462 138.778 204.619 138.778ZM102.978 185.961H171.882C176.143 185.961 179.26 182.843 179.26 178.894C179.26 174.736 176.143 171.515 171.882 171.515H102.978C98.8205 171.515 95.7027 174.736 95.7027 178.894C95.7027 182.843 98.8205 185.961 102.978 185.961ZM204.307 185.961H215.843C220.104 185.961 223.222 182.843 223.222 178.894C223.222 174.736 220.104 171.515 215.843 171.515H204.307C200.15 171.515 197.032 174.736 197.032 178.894C197.032 182.843 200.15 185.961 204.307 185.961ZM102.978 233.871H171.882C176.143 233.871 179.26 230.753 179.26 226.804C179.26 222.751 176.143 219.529 171.882 219.529H102.978C98.8205 219.529 95.7027 222.751 95.7027 226.804C95.7027 230.753 98.8205 233.871 102.978 233.871ZM204.307 233.871H215.843C220.104 233.871 223.222 230.753 223.222 226.804C223.222 222.751 220.104 219.529 215.843 219.529H204.307C200.15 219.529 197.032 222.751 197.032 226.804C197.032 230.753 200.15 233.871 204.307 233.871Z" fill="#00A6A1"/>
</svg>
