<svg width="320" height="320" viewBox="0 0 320 320" fill="none" xmlns="http://www.w3.org/2000/svg">
<path d="M159.889 11.917C180.463 11.9171 200.036 19.1852 214.478 33.627C228.954 48.104 237.853 69.3632 237.854 96.5488V125.823C243.984 127.373 249.301 130.284 253.502 134.684C260.119 141.613 263.188 151.419 263.188 162.995V264.11C263.188 275.735 260.123 285.568 253.507 292.514C246.85 299.502 237.39 302.74 226.336 302.74H93.5537C82.4512 302.74 72.9841 299.507 66.3359 292.509C59.7315 285.557 56.7003 275.721 56.7002 264.11V162.995C56.7003 151.433 59.7353 141.624 66.3408 134.688C70.5701 130.248 75.9402 127.326 82.1465 125.786V96.5488C82.1465 69.3687 91.0145 48.1111 105.447 33.6328C119.846 19.1886 139.365 11.9171 159.889 11.917ZM228.154 296.967C227.556 296.989 226.95 297 226.335 297H226.336C226.95 297 227.557 296.989 228.154 296.967ZM257.447 264.11C257.447 264.443 257.445 264.774 257.439 265.103L257.448 264.11V162.995H257.447V264.11ZM107.442 94.2158V130.217H107.443V94.2158C107.443 94.1079 107.444 94.0002 107.444 93.8926C107.444 94.0002 107.442 94.1079 107.442 94.2158ZM159.889 41.9531C146.805 41.9532 135.237 46.6686 126.931 55.3154C118.629 63.9576 113.183 76.9535 113.183 94.2158V124.477H206.817V94.2158C206.817 76.969 201.326 63.9745 192.971 55.3271C184.606 46.6706 172.976 41.9532 159.889 41.9531ZM107.456 92.7197C107.454 92.8546 107.452 92.9897 107.45 93.125C107.452 92.9897 107.454 92.8546 107.456 92.7197ZM107.48 91.6406C107.479 91.6992 107.478 91.7578 107.477 91.8164C107.486 91.4742 107.497 91.1333 107.511 90.7939L107.48 91.6406ZM107.671 88.0068C107.623 88.6502 107.582 89.2989 107.549 89.9531L107.596 89.1191C107.618 88.7466 107.643 88.3758 107.671 88.0068ZM107.784 86.6494C107.75 87.0177 107.719 87.3878 107.69 87.7598C107.719 87.3882 107.75 87.0183 107.784 86.6504V86.6494ZM107.95 85.0342C107.92 85.3014 107.891 85.5697 107.863 85.8389L107.951 85.0342C107.982 84.7669 108.013 84.5006 108.046 84.2354L107.95 85.0342ZM108.783 79.5684C108.588 80.581 108.414 81.6101 108.261 82.6553L108.38 81.875C108.462 81.3566 108.549 80.8423 108.642 80.332C108.688 80.0768 108.735 79.8226 108.784 79.5693L108.783 79.5684ZM109.73 75.3799C109.564 76.0189 109.406 76.665 109.257 77.3184L109.43 76.5811C109.527 76.1779 109.627 75.7775 109.73 75.3799ZM110.076 74.1055C109.969 74.485 109.865 74.8672 109.764 75.252C109.865 74.8671 109.969 74.485 110.076 74.1055ZM110.45 72.834C110.339 73.1967 110.232 73.562 110.127 73.9297C110.232 73.562 110.339 73.1967 110.45 72.834ZM111.489 69.7373C111.44 69.8715 111.39 70.0056 111.342 70.1406C111.39 70.0056 111.44 69.8715 111.489 69.7373ZM111.751 69.0322C111.707 69.1472 111.664 69.2624 111.621 69.3779C111.664 69.2624 111.707 69.1471 111.751 69.0322ZM112.038 68.293C112.001 68.3855 111.966 68.4784 111.93 68.5713C111.966 68.4784 112.001 68.3855 112.038 68.293ZM114.819 62.3193C114.709 62.5232 114.599 62.7275 114.491 62.9336C114.599 62.7275 114.709 62.5232 114.819 62.3193ZM115.404 61.2637C115.281 61.4809 115.157 61.6991 115.036 61.9189C115.157 61.6991 115.281 61.4809 115.404 61.2637ZM115.987 60.2676C115.867 60.4686 115.747 60.6706 115.629 60.874C115.747 60.6706 115.867 60.4686 115.987 60.2676ZM116.39 59.6025C116.336 59.6883 116.285 59.7752 116.232 59.8613C116.402 59.5845 116.572 59.3093 116.746 59.0371L116.39 59.6025ZM120.4 54.0195C120.322 54.1139 120.246 54.2096 120.168 54.3047C120.246 54.2096 120.322 54.1139 120.4 54.0195ZM120.905 53.4199C120.815 53.5259 120.726 53.6333 120.636 53.7402C120.726 53.6333 120.815 53.5259 120.905 53.4199ZM121.442 52.8018C121.333 52.9256 121.225 53.0507 121.116 53.1758C121.225 53.0507 121.333 52.9255 121.442 52.8018ZM122.589 51.5527C122.385 51.7671 122.182 51.9825 121.982 52.2012C122.182 51.9825 122.385 51.7671 122.589 51.5527ZM124.171 49.96C123.697 50.4152 123.231 50.8815 122.773 51.3584C123.231 50.8816 123.697 50.4152 124.171 49.96ZM125.852 48.4219C125.347 48.862 124.851 49.3134 124.363 49.7764C124.851 49.3134 125.347 48.862 125.852 48.4219ZM127.596 46.9707C127.056 47.3983 126.525 47.8389 126.003 48.291C126.525 47.839 127.056 47.3982 127.596 46.9707ZM127.991 46.6602C127.879 46.7473 127.767 46.8356 127.655 46.9238C127.933 46.7048 128.212 46.4889 128.494 46.2764L127.991 46.6602ZM130.957 44.54C130.872 44.5959 130.787 44.6516 130.703 44.708C130.787 44.6516 130.872 44.5959 130.957 44.54ZM131.699 44.0596C131.62 44.1096 131.542 44.1604 131.463 44.2109C131.542 44.1604 131.62 44.1096 131.699 44.0596ZM132.455 43.5898C132.395 43.6266 132.335 43.6642 132.274 43.7012C132.335 43.6642 132.395 43.6266 132.455 43.5898ZM137.136 41.0859C137.006 41.1466 136.876 41.2078 136.747 41.2695C137.067 41.117 137.388 40.968 137.711 40.8223L137.136 41.0859ZM106.503 40.915C106.403 41.0304 106.302 41.1455 106.202 41.2617C106.302 41.1456 106.403 41.0303 106.503 40.915ZM107.092 40.2461C107.002 40.3463 106.913 40.4479 106.824 40.5488C107.109 40.2266 107.396 39.9072 107.687 39.5918L107.092 40.2461ZM144.952 38.2041C144.831 38.2378 144.711 38.2731 144.59 38.3076C144.711 38.273 144.831 38.2379 144.952 38.2041ZM157.636 36.2568C157.556 36.2599 157.476 36.2632 157.396 36.2666C157.476 36.2632 157.556 36.2599 157.636 36.2568ZM158.533 36.2285C158.458 36.2302 158.383 36.2334 158.309 36.2354C158.383 36.2334 158.458 36.2302 158.533 36.2285ZM110.845 71.5889C110.718 71.9739 110.596 72.3621 110.476 72.7529C110.596 72.3621 110.718 71.9739 110.845 71.5889Z" fill="url(#paint0_linear_253_612)"/>
<defs>
<linearGradient id="paint0_linear_253_612" x1="159.945" y1="11.917" x2="159.945" y2="302.74" gradientUnits="userSpaceOnUse">
<stop stop-color="#5AD8D7"/>
<stop offset="1" stop-color="#82DFD4"/>
</linearGradient>
</defs>
</svg>
