<svg width="320" height="320" viewBox="0 0 320 320" fill="none" xmlns="http://www.w3.org/2000/svg">
<path d="M29.999 204.628C38.4858 204.628 45.4882 211.63 45.4883 220.117V247.98C45.4884 256.932 48.118 263.405 52.335 267.633C56.5498 271.858 63.0187 274.512 72.0195 274.512H100.332C108.819 274.512 115.821 281.514 115.821 290.001C115.821 298.559 108.86 305.603 100.332 305.603H72.0195C54.5961 305.603 40.0346 300.322 29.8242 290.08C19.6167 279.84 14.3985 265.283 14.3984 247.98V220.117C14.3985 211.59 21.4413 204.628 29.999 204.628ZM289.76 204.628C298.318 204.628 305.361 211.589 305.361 220.117V247.98C305.361 265.283 300.143 279.84 289.936 290.08C279.725 300.322 265.163 305.603 247.739 305.603H219.427C210.899 305.603 203.938 298.559 203.938 290.001C203.938 281.514 210.94 274.512 219.427 274.512H247.739C256.74 274.512 263.209 271.858 267.424 267.633C271.641 263.405 274.27 256.932 274.271 247.98V220.117C274.271 211.63 281.273 204.628 289.76 204.628ZM70.502 299.986L72.0195 300C71.0038 300 70.0008 299.98 69.0107 299.942C69.5046 299.961 70.0017 299.977 70.502 299.986ZM209.588 290.988C209.589 290.998 209.59 291.008 209.591 291.019C209.574 290.851 209.561 290.683 209.553 290.514L209.588 290.988ZM34.3799 286.703C34.5804 286.896 34.783 287.087 34.9873 287.276C34.581 286.9 34.1818 286.516 33.791 286.124L34.3799 286.703ZM159.768 87.7812C164.219 87.7812 168.333 89.3826 171.342 92.4141C174.349 95.4439 175.931 99.5776 175.931 104.057V143.846H215.832C220.288 143.846 224.381 145.451 227.364 148.479C230.339 151.5 231.883 155.602 231.883 160.009C231.883 164.371 230.29 168.393 227.272 171.319C224.267 174.233 220.199 175.723 215.832 175.723H175.931V215.623C175.931 220.108 174.343 224.23 171.312 227.239C168.286 230.242 164.176 231.786 159.768 231.786C150.559 231.786 143.942 224.734 143.941 215.623V175.723H104.152C99.7906 175.723 95.7123 174.238 92.6865 171.349C89.6413 168.441 87.9895 164.416 87.9893 160.009C87.9893 155.601 89.5346 151.49 92.5371 148.465C95.546 145.433 99.6671 143.846 104.152 143.846H143.941V104.057C143.941 99.622 145.465 95.511 148.387 92.4756C151.321 89.4278 155.366 87.7812 159.768 87.7812ZM159.768 226.184C159.717 226.184 159.666 226.181 159.615 226.181L159.768 226.185C159.959 226.185 160.15 226.18 160.338 226.172C160.15 226.18 159.959 226.184 159.768 226.184ZM159.214 226.172L159.301 226.174C159.218 226.171 159.136 226.165 159.054 226.16C159.107 226.163 159.16 226.169 159.214 226.172ZM158.606 226.124C158.676 226.131 158.747 226.137 158.817 226.143C158.747 226.137 158.676 226.131 158.606 226.124ZM39.8867 220.117L39.874 219.63C39.8738 219.626 39.8732 219.622 39.873 219.618C39.8816 219.783 39.8867 219.95 39.8867 220.117ZM103.596 170.108L104.152 170.12C103.96 170.12 103.769 170.115 103.58 170.107C103.585 170.108 103.59 170.108 103.596 170.108ZM93.6348 161.001C93.6388 161.049 93.6419 161.096 93.6465 161.144C93.6419 161.096 93.6388 161.049 93.6348 161.001ZM226.232 161.085C226.248 160.912 226.261 160.738 226.269 160.562V160.552C226.261 160.731 226.248 160.909 226.232 161.085ZM93.6045 160.562C93.606 160.594 93.6086 160.626 93.6104 160.658C93.6076 160.608 93.6046 160.557 93.6025 160.507L93.6045 160.562ZM100.332 14.6396C108.86 14.6396 115.821 21.6824 115.821 30.2402C115.821 38.7268 108.819 45.7295 100.332 45.7295H72.0195C63.0186 45.7295 56.5498 48.3828 52.335 52.6084C48.118 56.8364 45.4883 63.3091 45.4883 72.2607V100.124C45.488 108.611 38.4857 115.613 29.999 115.613C21.4414 115.613 14.3987 108.651 14.3984 100.124V72.2607C14.3984 54.9583 19.6168 40.4018 29.8242 30.1621C40.0347 19.9196 54.5958 14.6396 72.0195 14.6396H100.332ZM247.739 14.6396C265.163 14.6396 279.725 19.9196 289.936 30.1621C300.143 40.4018 305.361 54.9584 305.361 72.2607V100.124C305.361 108.652 298.318 115.613 289.76 115.613C281.273 115.613 274.271 108.611 274.271 100.124V72.2607C274.271 63.309 271.641 56.8364 267.424 52.6084C263.209 48.3829 256.74 45.7295 247.739 45.7295H219.427C210.94 45.7295 203.938 38.7268 203.938 30.2402C203.938 21.6824 210.899 14.6396 219.427 14.6396H247.739ZM289.257 109.998C289.424 110.007 289.591 110.012 289.76 110.012V110.011C289.43 110.011 289.103 109.993 288.78 109.96C288.938 109.976 289.097 109.99 289.257 109.998ZM170.329 104.057L170.317 103.49C170.317 103.486 170.317 103.481 170.316 103.477C170.325 103.668 170.329 103.862 170.329 104.057ZM160.904 93.4336C161.086 93.4501 161.266 93.4698 161.444 93.4941C161.084 93.445 160.717 93.4123 160.342 93.3955L160.904 93.4336ZM254.927 40.6836C255.209 40.7296 255.49 40.7775 255.769 40.8291C255.212 40.7258 254.646 40.6344 254.072 40.5537L254.927 40.6836ZM218.924 40.1143L219.427 40.1279H247.739C248.371 40.1279 248.995 40.1388 249.61 40.1621C249.303 40.1504 248.993 40.1414 248.681 40.1357C248.369 40.1298 248.055 40.127 247.739 40.127H219.427C219.097 40.127 218.77 40.109 218.447 40.0762C218.605 40.0923 218.764 40.1059 218.924 40.1143ZM71.0098 40.1387C70.7094 40.145 70.4108 40.1533 70.1143 40.165C70.4108 40.1534 70.7093 40.1448 71.0098 40.1387ZM101.311 40.0762C100.988 40.1089 100.662 40.127 100.332 40.127H72.0195C71.7119 40.127 71.4063 40.13 71.1025 40.1357L72.0195 40.1279H100.332C100.5 40.1279 100.668 40.1229 100.835 40.1143C100.994 40.106 101.153 40.0922 101.311 40.0762ZM209.588 31.209C209.589 31.2191 209.59 31.2292 209.591 31.2393C209.574 31.075 209.561 30.9095 209.553 30.7432L209.588 31.209Z" fill="#00A6A1"/>
</svg>
