<svg width="320" height="320" viewBox="0 0 320 320" fill="none" xmlns="http://www.w3.org/2000/svg">
<path d="M223.199 77.2642C196.956 75.3797 174.48 92.0888 162.3 92.0888C149.618 92.0888 130.155 77.8923 109.311 78.2692C82.1888 78.5205 57.4524 93.9733 43.1379 118.22C15.2623 167.092 36.3573 239.707 63.6051 279.156C76.7895 298.88 92.9875 320.615 114.082 319.987C134.173 318.856 141.707 306.67 166.318 306.67C190.929 306.67 197.584 319.987 218.93 319.359C241.029 318.856 254.465 299.634 268.152 280.161C283.471 257.422 289.874 235.687 290 234.431C289.372 234.431 247.684 218.35 247.182 169.981C247.057 129.527 280.331 109.929 281.587 109.049C262.752 81.41 233.37 78.2692 223.199 77.2642ZM206.876 51.1325C218.051 37.4386 225.585 18.8449 223.701 0C207.503 0.628164 188.041 10.8044 176.489 24.2471C166.318 36.3079 157.277 55.5297 159.788 73.7464C177.744 75.0028 195.951 64.5752 206.876 51.1325Z" fill="white"/>
</svg>
