<svg width="320" height="320" viewBox="0 0 320 320" fill="none" xmlns="http://www.w3.org/2000/svg">
<path d="M86.8947 305H263.737C268.895 305 273 300.895 273 295.632C273 291.737 270.263 288.158 266.684 286.789C248.789 278.579 244.895 256.053 262.053 238.263C267.316 232.895 273 225.737 273 212.579V55.9474C273 28.7895 259.421 15 232.474 15H87.5263C60.5789 15 47 28.6842 47 55.9474V265.211C47 291.421 60.6842 305 86.8947 305ZM65.6316 232.158V56.3684C65.6316 41.6316 73.4211 33.6316 88.4737 33.6316H231.421C246.579 33.6316 254.368 41.6316 254.368 56.3684V210.158C254.368 220.053 248.895 225.421 238.895 225.421H88.6842C79 225.421 71.6316 227.737 65.6316 232.158ZM87.8421 286.368C73.5263 286.368 65.6316 278.579 65.6316 265C65.6316 252.158 74.5789 244.053 88.7895 244.053H230.158C232.789 244.053 235 243.737 237.105 243.211C229.632 258.368 231.211 274.368 240.474 286.368H87.8421ZM81.9474 235.316H97.4211V28.6842H81.9474V235.316Z" fill="#00A6A1"/>
</svg>
