<?xml version="1.0" encoding="UTF-8"?>
<svg id="Layer_1" xmlns="http://www.w3.org/2000/svg" version="1.1" viewBox="0 0 210 210">
  <!-- Generator: Adobe Illustrator 30.3.0, SVG Export Plug-In . SVG Version: 2.1.3 Build 182)  -->
  <defs>
    <style>
      .st0 {
        fill-opacity: .9;
      }
    </style>
  </defs>
  <path class="st0" d="M162.8,168.9c25,0,44.8-18.3,44.8-41.2s-9.6-32.3-25.7-38.8c.2-36.3-25.9-62.6-59.6-62.6s-37.5,11-47.5,25.9c-20.4-5.7-41.8,9.6-42.6,32.2-18.3,3.2-29.8,19.5-29.8,39.6s21.4,44.8,49.4,44.8h111ZM162.8,153.2H51.8c-19.1,0-33.4-13.3-33.4-29.1s10-27.8,26.4-27.8,1.6-.6,1.6-1.7c-.7-23.4,16.4-32.4,34.1-26.6,1,.3,1.6.1,2.2-.8,8-14.1,19.8-24.9,39.6-24.9s43.2,19.8,44.5,43.6c.2,4.3,0,8.9-.4,12.8-.1,1.1.3,1.7,1.3,1.9,14.6,2.8,23.9,13.2,23.9,27.4s-12.6,25.4-28.8,25.4Z"/>
  <path class="st0" d="M66.8,112.3h22.2c3,0,3.8-2.9,2.1-5.3l-10-13.7c-1.8-2.5-4.8-2.5-6.6,0l-9.8,13.7c-1.7,2.3-.8,5.3,2,5.3ZM107.3,140.9c8,0,15.3-2.8,20.7-7.1,3.2-2.2,3.3-5.6,1.8-7.7-1.5-2-4.3-2.8-7.5-.6-4,3.2-9.2,5.2-15,5.2-13.5,0-24.4-10.9-24.4-24.4s-2.3-5-5-5-5,2.3-5,5c0,19.1,15.4,34.5,34.5,34.5ZM147.9,100.5h-22.2c-3,0-3.8,2.9-2.1,5.2l9.9,13.7c1.8,2.5,4.8,2.6,6.6,0l9.8-13.7c1.7-2.3.9-5.2-2-5.2ZM107.3,71.8c-8,0-15.3,2.8-20.7,7.1-3.2,2.2-3.3,5.6-1.8,7.7,1.5,2,4.3,2.8,7.5.7,4-3.3,9.2-5.3,15-5.3,13.5,0,24.5,10.9,24.5,24.4s2.3,5,5,5,5-2.3,5-5c0-19.1-15.4-34.5-34.5-34.5Z"/>
</svg>