<?xml version="1.0" encoding="UTF-8"?>
<!--Generator: Apple Native CoreSVG 341-->
<!DOCTYPE svg
PUBLIC "-//W3C//DTD SVG 1.1//EN"
       "http://www.w3.org/Graphics/SVG/1.1/DTD/svg11.dtd">
<svg version="1.1" xmlns="http://www.w3.org/2000/svg" xmlns:xlink="http://www.w3.org/1999/xlink" viewBox="0 0 180.375 180.562">
 <g>
  <rect height="180.562" opacity="0" width="180.375" x="0" y="0"/>
  <path d="M66.625 2.5C64.1875 3 63 5.125 63.625 7.75L66.3125 18.125C66.9375 20.375 69.125 21.5 71.75 20.8125C74.3125 20.0625 75.25 18.0625 74.5625 15.6875L71.75 5.75C71.0625 3.125 68.9375 2.0625 66.625 2.5Z" fill="white" fill-opacity="0.85"/>
  <path d="M45.125 12.1875C43.0625 13.4375 42.4375 16 43.625 18.0625L58.75 44.375C59.9375 46.4375 62.5 47.1875 64.5 45.9375C66.5625 44.8125 67.25 42.25 66 40.125L50.8125 13.8125C49.625 11.8125 47.1875 11.125 45.125 12.1875Z" fill="white" fill-opacity="0.85"/>
  <path d="M25.875 26.0625C24.125 27.8125 24.375 30.5 25.9375 32.125L33.1875 39.625C35 41.375 37.375 41.4375 39.25 39.625C40.875 38 41 35.4375 39.1875 33.5625L31.875 26.25C30 24.375 27.625 24.4375 25.875 26.0625Z" fill="white" fill-opacity="0.85"/>
  <path d="M12.125 45.25C10.9375 47.3125 11.5625 49.875 13.625 51L39.9375 66.25C42.0625 67.5 44.625 66.75 45.8125 64.75C47 62.6875 46.25 60.125 44.1875 59L17.8125 43.8125C15.8125 42.625 13.3125 43.25 12.125 45.25Z" fill="white" fill-opacity="0.85"/>
  <path d="M2.25 66.875C1.75 69.25 3.1875 71.4375 5.375 72.0625L15.5 75C17.875 75.5625 20.125 74.3125 20.625 71.9375C21.1875 69.625 20.0625 67.25 17.6875 66.625L7.625 64.0625C5 63.4375 2.75 64.6875 2.25 66.875Z" fill="white" fill-opacity="0.85"/>
  <path d="M0 90.3125C0 92.75 1.9375 94.5625 4.25 94.5625L34.625 94.5625C37.0625 94.5625 38.875 92.75 38.875 90.3125C38.875 88 37.0625 86.1875 34.625 86.1875L4.25 86.1875C1.9375 86.1875 0 88 0 90.3125Z" fill="white" fill-opacity="0.85"/>
  <path d="M2.25 113.875C2.875 116.25 5.3125 117.438 7.5 116.875L17.6875 114.438C20.125 113.75 21.375 111.625 20.6875 109.25C20.0625 106.938 17.8125 105.562 15.5 106.188L5.5 108.875C2.875 109.562 1.75 111.688 2.25 113.875Z" fill="white" fill-opacity="0.85"/>
  <path d="M12.0625 135.438C13.25 137.5 15.8125 138.125 17.8125 136.938L44.1875 121.75C46.25 120.625 47 118 45.75 116C44.625 114 42.0625 113.25 39.9375 114.5L13.625 129.75C11.5625 130.875 10.9375 133.375 12.0625 135.438Z" fill="white" fill-opacity="0.85"/>
  <path d="M25.875 154.688C27.6875 156.438 30.1875 156.375 31.8125 154.812L39.3125 147.438C41.0625 145.625 41.125 143.188 39.4375 141.438C37.6875 139.75 35.0625 139.688 33.375 141.438L26.0625 148.812C24.1875 150.688 24.125 153 25.875 154.688Z" fill="white" fill-opacity="0.85"/>
  <path d="M45.125 168.438C47.125 169.625 49.6875 168.938 50.8125 166.938L66 140.562C67.25 138.5 66.5625 135.938 64.5625 134.75C62.5 133.562 59.9375 134.25 58.8125 136.375L43.625 162.688C42.4375 164.75 43.0625 167.25 45.125 168.438Z" fill="white" fill-opacity="0.85"/>
  <path d="M66.1875 178.25C68.875 179.062 71.1875 177.5 71.75 175.312L74.5625 165.25C75.25 162.938 74 160.625 71.75 160.062C69.3125 159.438 67.0625 160.625 66.4375 163L63.75 173.125C63.0625 175.562 63.9375 177.5 66.1875 178.25Z" fill="white" fill-opacity="0.85"/>
  <path d="M90.125 180.562C92.5625 180.562 94.375 178.625 94.375 176.312L94.375 145.938C94.375 143.5 92.5625 141.688 90.125 141.688C87.8125 141.688 85.9375 143.5 85.9375 145.938L85.9375 176.312C85.9375 178.625 87.8125 180.562 90.125 180.562Z" fill="white" fill-opacity="0.85"/>
  <path d="M113.688 178.375C116.438 177.688 117.188 175.312 116.688 173.125L114.062 162.75C113.438 160.5 111.062 159.25 108.812 159.875C106.25 160.562 105.188 162.875 105.812 165.062L108.688 175.125C109.375 177.562 111.25 178.812 113.688 178.375Z" fill="white" fill-opacity="0.85"/>
  <path d="M135.25 168.438C137.312 167.312 137.938 164.75 136.75 162.688L121.562 136.375C120.438 134.25 117.875 133.562 115.875 134.75C113.812 135.938 113.062 138.5 114.312 140.562L129.5 166.938C130.688 168.938 133.188 169.625 135.25 168.438Z" fill="white" fill-opacity="0.85"/>
  <path d="M154.375 154.812C156.188 153 156 150.312 154.5 148.75L147.062 141.25C145.312 139.625 142.812 139.438 140.938 141.25C139.312 143.062 139.375 145.5 141.062 147.188L148.438 154.625C150.25 156.438 152.688 156.438 154.375 154.812Z" fill="white" fill-opacity="0.85"/>
  <path d="M168.25 135.438C169.438 133.438 168.75 130.875 166.75 129.75L140.375 114.5C138.312 113.25 135.75 114 134.625 115.938C133.375 118.062 134.062 120.625 136.188 121.75L162.5 136.938C164.562 138.125 167.062 137.5 168.25 135.438Z" fill="white" fill-opacity="0.85"/>
  <path d="M178 114.188C178.688 111.75 177.5 109.562 175 108.875L164.812 105.875C162.438 105.312 160.25 106.562 159.688 108.875C159.062 111.312 160.375 113.625 162.625 114.25L172.688 116.875C175.25 117.562 177.375 116.312 178 114.188Z" fill="white" fill-opacity="0.85"/>
  <path d="M180.375 90.3125C180.375 88 178.438 86.1875 176.125 86.1875L145.688 86.1875C143.312 86.1875 141.438 88 141.438 90.3125C141.438 92.75 143.312 94.5625 145.688 94.5625L176.125 94.5625C178.438 94.5625 180.375 92.75 180.375 90.3125Z" fill="white" fill-opacity="0.85"/>
  <path d="M178.062 67C177.438 64.5625 175 63.3125 172.875 63.9375L162.625 66.625C160.312 67.3125 158.938 69.4375 159.75 72.0625C160.312 74 162.312 75.5 164.812 74.8125L174.875 72.0625C177.375 71.375 178.562 69.1875 178.062 67Z" fill="white" fill-opacity="0.85"/>
  <path d="M168.312 45.25C167.125 43.25 164.562 42.625 162.5 43.8125L136.188 58.9375C134.062 60.125 133.375 62.6875 134.625 64.75C135.75 66.75 138.312 67.5 140.375 66.25L166.75 51C168.75 49.8125 169.438 47.375 168.312 45.25Z" fill="white" fill-opacity="0.85"/>
  <path d="M154.5 26.25C152.75 24.5 150.125 24.6875 148.5 26.25L141 33.625C139.25 35.4375 139.25 37.8125 140.938 39.5625C142.75 41.375 145.25 41.375 146.938 39.625L154.25 32.25C156.125 30.3125 156.188 27.9375 154.5 26.25Z" fill="white" fill-opacity="0.85"/>
  <path d="M135.25 12.25C133.25 11.125 130.688 11.8125 129.5 13.8125L114.312 40.125C113.062 42.25 113.812 44.8125 115.812 45.9375C117.875 47.1875 120.438 46.4375 121.562 44.375L136.75 18.0625C137.938 16 137.312 13.5 135.25 12.25Z" fill="white" fill-opacity="0.85"/>
  <path d="M113.812 2.6875C111.438 2 109.25 3.125 108.562 5.75L105.75 15.8125C105.062 18.125 106.312 20.4375 108.562 21C111 21.5625 113.25 20.375 113.875 18.0625L116.562 7.875C117.25 5.4375 116 3.375 113.812 2.6875Z" fill="white" fill-opacity="0.85"/>
  <path d="M90.125 0.1875C87.8125 0.1875 85.9375 2.125 85.9375 4.4375L85.9375 34.8125C85.9375 37.25 87.8125 39.0625 90.125 39.0625C92.5625 39.0625 94.375 37.25 94.375 34.8125L94.375 4.4375C94.375 2.125 92.5625 0.1875 90.125 0.1875Z" fill="white" fill-opacity="0.85"/>
 </g>
</svg>
