<?xml version="1.0" encoding="UTF-8"?>
<svg id="Layer_1" xmlns="http://www.w3.org/2000/svg" version="1.1" viewBox="0 0 210 210">
  <!-- Generator: Adobe Illustrator 30.3.0, SVG Export Plug-In . SVG Version: 2.1.3 Build 182)  -->
  <defs>
    <style>
      .st0 {
        fill-opacity: .9;
      }
    </style>
  </defs>
  <path class="st0" d="M38.6,70.7c15.2,0,27.5-12.3,27.5-27.5s-12.3-27.4-27.5-27.4-27.4,12.3-27.4,27.4,12.3,27.5,27.4,27.5ZM38.7,151.3c4.2,0,7.6-3.5,7.6-7.7v-76.9c0-4.2-3.5-7.7-7.6-7.7s-7.7,3.5-7.7,7.7v76.9c0,4.2,3.5,7.7,7.7,7.7ZM38.7,194.5c15.1,0,27.4-12.3,27.4-27.3s-12.3-27.5-27.4-27.5-27.5,12.3-27.5,27.5,12.3,27.3,27.5,27.3ZM80.7,50.8c4.2,0,7.5-3.4,7.5-7.5s-3.4-7.5-7.5-7.5-7.5,3.4-7.5,7.5,3.4,7.5,7.5,7.5ZM102.8,50.7c4.1,0,7.5-3.4,7.5-7.5s-3.4-7.5-7.5-7.5-7.5,3.4-7.5,7.5,3.4,7.5,7.5,7.5ZM124.9,50.7c4.1,0,7.5-3.4,7.5-7.5s-3.4-7.5-7.5-7.5-7.5,3.4-7.5,7.5,3.4,7.5,7.5,7.5ZM147,50.7c4.1,0,7.5-3.4,7.5-7.5s-3.4-7.5-7.5-7.5-7.5,3.4-7.5,7.5,3.4,7.5,7.5,7.5ZM169.1,50.5c4.1,0,7.5-3.4,7.5-7.5s-3.4-7.5-7.5-7.5-7.5,3.4-7.5,7.5,3.4,7.5,7.5,7.5ZM191.2,50.5c4.1,0,7.5-3.4,7.5-7.5s-3.4-7.5-7.5-7.5-7.5,3.4-7.5,7.5,3.4,7.5,7.5,7.5ZM80.7,174.6c4.2,0,7.5-3.4,7.5-7.5s-3.4-7.5-7.5-7.5-7.5,3.4-7.5,7.5,3.4,7.5,7.5,7.5ZM102.8,174.5c4.1,0,7.5-3.4,7.5-7.5s-3.4-7.5-7.5-7.5-7.5,3.4-7.5,7.5,3.4,7.5,7.5,7.5ZM124.9,174.5c4.1,0,7.5-3.4,7.5-7.5s-3.4-7.5-7.5-7.5-7.5,3.4-7.5,7.5,3.4,7.5,7.5,7.5ZM147,174.5c4.1,0,7.5-3.4,7.5-7.5s-3.4-7.5-7.5-7.5-7.5,3.4-7.5,7.5,3.4,7.5,7.5,7.5ZM169.1,174.4c4.1,0,7.5-3.4,7.5-7.5s-3.4-7.5-7.5-7.5-7.5,3.4-7.5,7.5,3.4,7.5,7.5,7.5ZM191.2,174.4c4.1,0,7.5-3.4,7.5-7.5s-3.4-7.5-7.5-7.5-7.5,3.4-7.5,7.5,3.4,7.5,7.5,7.5Z"/>
  <path class="st0" d="M92,134.9c3.3,0,5.6-2.2,5.6-5.5v-46.9c0-3.5-2.4-5.8-6-5.8s-3.2.5-5.2,1.8l-12.3,7.9c-2,1.3-2.9,2.9-2.9,4.9,0,2.8,2.1,4.8,5,4.8s2.2-.3,3.2-1.1l6.7-4.2h.4v38.6c0,3.2,2.3,5.5,5.5,5.5ZM110.2,134.3h30.4c3,0,5.2-2.2,5.2-5.1s-2.2-5.3-5.2-5.3h-18.6v-.4l10-10c9.1-8.9,11.9-13.8,11.9-20,0-9.8-8.4-17.1-19.6-17.1s-16.2,4.9-18.6,12.2c-.5,1.2-.8,2.6-.8,4,0,3,2.1,5.2,5,5.2s4.3-1.4,5-4.2c.2-.7.4-1.4.6-1.9,1.6-3.2,4.8-5,8.7-5s8.5,3.3,8.5,7.2-1.6,5.9-8.4,12.7l-17.2,17.2c-1.8,1.8-2.6,3.4-2.6,5.3,0,3.1,2.3,5.3,5.5,5.3ZM169.4,135c12.4,0,21.5-7.5,21.5-17.7s-5.8-14.3-13.7-14.8v3.9c7.2-1.9,11.5-7.2,11.5-14.2s-8.2-15.9-19.4-15.9-15.4,3.9-18.3,10.1c-.7,1.6-1.1,3.4-1.1,4.9,0,3,2.1,5.1,5,5.1s4.2-1.3,4.9-3.6c1.3-4,4.6-6.3,9.2-6.3s8.6,2.5,8.6,6.5-3.4,6.9-8.8,6.9h-4.1c-3,0-5,2.1-5,5s2.1,4.9,5,4.9h4.2c6.9,0,10.7,2.7,10.7,7.4s-4,7.4-10.1,7.4-9.3-2.4-10.6-6.4c-.8-2.3-2.4-3.6-4.9-3.6s-5.3,2.2-5.3,5.2.5,3.3,1.3,4.8c3.4,6.6,10.5,10.3,19.5,10.3Z"/>
</svg>