<?xml version="1.0" encoding="UTF-8"?>
<svg id="Layer_1" xmlns="http://www.w3.org/2000/svg" version="1.1" viewBox="0 0 210 210">
  <!-- Generator: Adobe Illustrator 30.3.0, SVG Export Plug-In . SVG Version: 2.1.3 Build 182)  -->
  <defs>
    <style>
      .st0 {
        fill-opacity: .9;
      }
    </style>
  </defs>
  <path class="st0" d="M16.1,90.1h178.2v-14.8H16.1v14.8ZM16.1,134.8h178.2v-14.8H16.1v14.8ZM97.3,172.9h15.3V37.2h-15.3v135.7ZM35.9,180.2h138.2c17.3,0,26.4-9.1,26.4-26.1V55.9c0-17.1-9.1-26.1-26.4-26.1H35.9c-17.2,0-26.3,9-26.3,26.1v98.2c0,17.1,9.1,26.1,26.3,26.1ZM37.1,164.5c-7.7,0-11.8-3.9-11.8-11.9V57.5c0-7.9,4.1-11.9,11.8-11.9h135.7c7.6,0,11.8,4,11.8,11.9v95.1c0,8-4.2,11.9-11.8,11.9H37.1Z"/>
</svg>