<?xml version="1.0" encoding="UTF-8"?>
<svg id="Layer_1" xmlns="http://www.w3.org/2000/svg" version="1.1" viewBox="0 0 210 210">
  <!-- Generator: Adobe Illustrator 30.3.0, SVG Export Plug-In . SVG Version: 2.1.3 Build 182)  -->
  <defs>
    <style>
      .st0 {
        fill-opacity: .9;
      }
    </style>
  </defs>
  <path class="st0" d="M12.5,172.8c0,4.5,3.5,7.7,7.9,7.7h169.2c4.4,0,7.9-3.2,7.9-7.7s-3.5-7.7-7.9-7.7H20.4c-4.4,0-7.9,3.2-7.9,7.7Z"/>
  <path class="st0" d="M153.9,143.9c0,5,3.2,8.1,8.3,8.1h18.2c5,0,8.2-3.1,8.2-8.1v-52.7c0-5-3.2-8.1-8.2-8.1h-18.2c-5.1,0-8.3,3.1-8.3,8.1v52.7Z"/>
  <path class="st0" d="M109.7,143.9c0,5,3.2,8.1,8.3,8.1h18.2c5,0,8.3-3.1,8.3-8.1V56.8c0-5.1-3.2-8.1-8.3-8.1h-18.2c-5.1,0-8.3,3.1-8.3,8.1v87.1Z"/>
  <path class="st0" d="M65.5,143.9c0,5,3.2,8.1,8.2,8.1h18.2c5.1,0,8.3-3.1,8.3-8.1V37.6c0-4.9-3.2-8.1-8.3-8.1h-18.2c-5,0-8.2,3.1-8.2,8.1v106.3Z"/>
  <path class="st0" d="M21.3,143.9c0,5,3.2,8.1,8.2,8.1h18.2c5,0,8.3-3.1,8.3-8.1v-69.7c0-4.9-3.3-8.1-8.3-8.1h-18.2c-5,0-8.2,3.2-8.2,8.1v69.7Z"/>
</svg>